<mxfile host="65bd71144e" modified="2020-12-13T18:52:14.261Z" agent="5.0 (Windows NT 10.0; Win64; x64) AppleWebKit/537.36 (KHTML, like Gecko) Code/1.52.0 Chrome/83.0.4103.122 Electron/9.3.5 Safari/537.36" etag="zqxfDCi3nArsF7TgCdUj" version="13.10.0" type="embed">
    <diagram id="RqjHBFqIfxLRk7FW7oAh" name="Page-1">
        <mxGraphModel dx="887" dy="451" grid="1" gridSize="10" guides="1" tooltips="1" connect="1" arrows="1" fold="1" page="1" pageScale="1" pageWidth="827" pageHeight="1169" math="0" shadow="0">
            <root>
                <mxCell id="0"/>
                <mxCell id="1" parent="0"/>
                <mxCell id="8YzBrKUA3QClfW0Q4QkU-1" value="" style="rounded=0;whiteSpace=wrap;html=1;" parent="1" vertex="1">
                    <mxGeometry x="80" y="80" width="200" height="280" as="geometry"/>
                </mxCell>
                <mxCell id="8YzBrKUA3QClfW0Q4QkU-4" value="&lt;font style=&quot;font-size: 10px&quot;&gt;&amp;nbsp;Navbar: Categories Register Login Cart&lt;/font&gt;" style="rounded=0;whiteSpace=wrap;html=1;align=center;" parent="1" vertex="1">
                    <mxGeometry x="80" y="80" width="200" height="30" as="geometry"/>
                </mxCell>
                <mxCell id="8YzBrKUA3QClfW0Q4QkU-5" value="Image Slider&lt;br&gt;with Special Offers" style="rounded=0;whiteSpace=wrap;html=1;" parent="1" vertex="1">
                    <mxGeometry x="80" y="110" width="200" height="70" as="geometry"/>
                </mxCell>
                <mxCell id="8YzBrKUA3QClfW0Q4QkU-6" value="Product" style="rounded=0;whiteSpace=wrap;html=1;" parent="1" vertex="1">
                    <mxGeometry x="90" y="190" width="80" height="40" as="geometry"/>
                </mxCell>
                <mxCell id="8YzBrKUA3QClfW0Q4QkU-7" value="&lt;span&gt;Product&lt;/span&gt;" style="rounded=0;whiteSpace=wrap;html=1;" parent="1" vertex="1">
                    <mxGeometry x="190" y="190" width="80" height="40" as="geometry"/>
                </mxCell>
                <mxCell id="8YzBrKUA3QClfW0Q4QkU-8" value="&lt;span&gt;Product&lt;/span&gt;" style="rounded=0;whiteSpace=wrap;html=1;" parent="1" vertex="1">
                    <mxGeometry x="90" y="240" width="80" height="40" as="geometry"/>
                </mxCell>
                <mxCell id="8YzBrKUA3QClfW0Q4QkU-9" value="&lt;span&gt;Product&lt;/span&gt;" style="rounded=0;whiteSpace=wrap;html=1;" parent="1" vertex="1">
                    <mxGeometry x="190" y="240" width="80" height="40" as="geometry"/>
                </mxCell>
                <mxCell id="8YzBrKUA3QClfW0Q4QkU-10" value="Footer" style="rounded=0;whiteSpace=wrap;html=1;" parent="1" vertex="1">
                    <mxGeometry x="80" y="300" width="200" height="60" as="geometry"/>
                </mxCell>
                <mxCell id="8YzBrKUA3QClfW0Q4QkU-11" value="" style="rounded=0;whiteSpace=wrap;html=1;" parent="1" vertex="1">
                    <mxGeometry x="320" y="80" width="200" height="280" as="geometry"/>
                </mxCell>
                <mxCell id="8YzBrKUA3QClfW0Q4QkU-12" value="&lt;span style=&quot;font-size: 10px&quot;&gt;&amp;nbsp;Navbar: Categories Register Login Cart&lt;/span&gt;" style="rounded=0;whiteSpace=wrap;html=1;align=center;" parent="1" vertex="1">
                    <mxGeometry x="320" y="80" width="200" height="30" as="geometry"/>
                </mxCell>
                <mxCell id="8YzBrKUA3QClfW0Q4QkU-14" value="Product" style="rounded=0;whiteSpace=wrap;html=1;" parent="1" vertex="1">
                    <mxGeometry x="330" y="190" width="80" height="40" as="geometry"/>
                </mxCell>
                <mxCell id="8YzBrKUA3QClfW0Q4QkU-15" value="&lt;span&gt;Product&lt;/span&gt;" style="rounded=0;whiteSpace=wrap;html=1;" parent="1" vertex="1">
                    <mxGeometry x="430" y="190" width="80" height="40" as="geometry"/>
                </mxCell>
                <mxCell id="8YzBrKUA3QClfW0Q4QkU-16" value="&lt;span&gt;Product&lt;/span&gt;" style="rounded=0;whiteSpace=wrap;html=1;" parent="1" vertex="1">
                    <mxGeometry x="330" y="240" width="80" height="40" as="geometry"/>
                </mxCell>
                <mxCell id="8YzBrKUA3QClfW0Q4QkU-17" value="&lt;span&gt;Product&lt;/span&gt;" style="rounded=0;whiteSpace=wrap;html=1;" parent="1" vertex="1">
                    <mxGeometry x="430" y="240" width="80" height="40" as="geometry"/>
                </mxCell>
                <mxCell id="8YzBrKUA3QClfW0Q4QkU-18" value="Footer" style="rounded=0;whiteSpace=wrap;html=1;" parent="1" vertex="1">
                    <mxGeometry x="320" y="344" width="200" height="60" as="geometry"/>
                </mxCell>
                <mxCell id="8YzBrKUA3QClfW0Q4QkU-19" value="Home" style="text;html=1;strokeColor=none;fillColor=none;align=left;verticalAlign=middle;whiteSpace=wrap;rounded=0;" parent="1" vertex="1">
                    <mxGeometry x="80" y="60" width="40" height="20" as="geometry"/>
                </mxCell>
                <mxCell id="8YzBrKUA3QClfW0Q4QkU-20" value="Product Category / Search Results" style="text;html=1;strokeColor=none;fillColor=none;align=left;verticalAlign=middle;whiteSpace=wrap;rounded=0;" parent="1" vertex="1">
                    <mxGeometry x="320" y="60" width="200" height="20" as="geometry"/>
                </mxCell>
                <mxCell id="8YzBrKUA3QClfW0Q4QkU-23" value="Product" style="rounded=0;whiteSpace=wrap;html=1;" parent="1" vertex="1">
                    <mxGeometry x="330" y="140" width="80" height="40" as="geometry"/>
                </mxCell>
                <mxCell id="8YzBrKUA3QClfW0Q4QkU-24" value="&lt;span&gt;Product&lt;/span&gt;" style="rounded=0;whiteSpace=wrap;html=1;" parent="1" vertex="1">
                    <mxGeometry x="430" y="140" width="80" height="40" as="geometry"/>
                </mxCell>
                <mxCell id="8YzBrKUA3QClfW0Q4QkU-25" value="&lt;span&gt;Product&lt;/span&gt;" style="rounded=0;whiteSpace=wrap;html=1;" parent="1" vertex="1">
                    <mxGeometry x="330" y="290" width="80" height="40" as="geometry"/>
                </mxCell>
                <mxCell id="8YzBrKUA3QClfW0Q4QkU-26" value="&lt;span&gt;Product&lt;/span&gt;" style="rounded=0;whiteSpace=wrap;html=1;" parent="1" vertex="1">
                    <mxGeometry x="430" y="290" width="80" height="40" as="geometry"/>
                </mxCell>
                <mxCell id="8YzBrKUA3QClfW0Q4QkU-27" value="Category Title or Search Term" style="text;html=1;strokeColor=none;fillColor=none;align=center;verticalAlign=middle;whiteSpace=wrap;rounded=0;" parent="1" vertex="1">
                    <mxGeometry x="335" y="114" width="170" height="20" as="geometry"/>
                </mxCell>
                <mxCell id="8YzBrKUA3QClfW0Q4QkU-28" value="" style="rounded=0;whiteSpace=wrap;html=1;" parent="1" vertex="1">
                    <mxGeometry x="560" y="80" width="200" height="300" as="geometry"/>
                </mxCell>
                <mxCell id="8YzBrKUA3QClfW0Q4QkU-29" value="&lt;span style=&quot;font-size: 10px&quot;&gt;&amp;nbsp;Navbar: Categories Register Login Cart&lt;/span&gt;" style="rounded=0;whiteSpace=wrap;html=1;align=center;" parent="1" vertex="1">
                    <mxGeometry x="560" y="80" width="200" height="30" as="geometry"/>
                </mxCell>
                <mxCell id="8YzBrKUA3QClfW0Q4QkU-30" value="Product Detail" style="text;html=1;strokeColor=none;fillColor=none;align=left;verticalAlign=middle;whiteSpace=wrap;rounded=0;" parent="1" vertex="1">
                    <mxGeometry x="560" y="60" width="90" height="20" as="geometry"/>
                </mxCell>
                <mxCell id="8YzBrKUA3QClfW0Q4QkU-31" value="Image" style="rounded=0;whiteSpace=wrap;html=1;align=center;" parent="1" vertex="1">
                    <mxGeometry x="570" y="140" width="70" height="60" as="geometry"/>
                </mxCell>
                <mxCell id="8YzBrKUA3QClfW0Q4QkU-32" value="Product Category: Product Name" style="text;html=1;strokeColor=none;fillColor=none;align=left;verticalAlign=middle;whiteSpace=wrap;rounded=0;" parent="1" vertex="1">
                    <mxGeometry x="570" y="114" width="180" height="20" as="geometry"/>
                </mxCell>
                <mxCell id="8YzBrKUA3QClfW0Q4QkU-33" value="Description" style="text;html=1;strokeColor=none;fillColor=none;align=left;verticalAlign=middle;whiteSpace=wrap;rounded=0;" parent="1" vertex="1">
                    <mxGeometry x="660" y="140" width="70" height="20" as="geometry"/>
                </mxCell>
                <mxCell id="8YzBrKUA3QClfW0Q4QkU-34" value="Price" style="text;html=1;strokeColor=none;fillColor=none;align=left;verticalAlign=middle;whiteSpace=wrap;rounded=0;" parent="1" vertex="1">
                    <mxGeometry x="660" y="161" width="70" height="20" as="geometry"/>
                </mxCell>
                <mxCell id="8YzBrKUA3QClfW0Q4QkU-35" value="Comments" style="text;html=1;strokeColor=none;fillColor=none;align=left;verticalAlign=middle;whiteSpace=wrap;rounded=0;" parent="1" vertex="1">
                    <mxGeometry x="570" y="229" width="70" height="20" as="geometry"/>
                </mxCell>
                <mxCell id="8YzBrKUA3QClfW0Q4QkU-36" value="" style="rounded=0;whiteSpace=wrap;html=1;align=left;" parent="1" vertex="1">
                    <mxGeometry x="570" y="314" width="180" height="30" as="geometry"/>
                </mxCell>
                <mxCell id="8YzBrKUA3QClfW0Q4QkU-38" value="User Comment 1" style="text;html=1;strokeColor=none;fillColor=none;align=left;verticalAlign=middle;whiteSpace=wrap;rounded=0;" parent="1" vertex="1">
                    <mxGeometry x="570" y="249" width="100" height="20" as="geometry"/>
                </mxCell>
                <mxCell id="8YzBrKUA3QClfW0Q4QkU-39" value="Add comment&lt;br&gt;(only when logged in)" style="text;html=1;strokeColor=none;fillColor=none;align=left;verticalAlign=middle;whiteSpace=wrap;rounded=0;" parent="1" vertex="1">
                    <mxGeometry x="570" y="274" width="170" height="36" as="geometry"/>
                </mxCell>
                <mxCell id="8YzBrKUA3QClfW0Q4QkU-40" value="Send" style="rounded=1;whiteSpace=wrap;html=1;align=center;fontSize=9;" parent="1" vertex="1">
                    <mxGeometry x="570" y="353" width="45" height="20" as="geometry"/>
                </mxCell>
                <mxCell id="8YzBrKUA3QClfW0Q4QkU-41" value="Footer" style="rounded=0;whiteSpace=wrap;html=1;" parent="1" vertex="1">
                    <mxGeometry x="560" y="380" width="200" height="60" as="geometry"/>
                </mxCell>
                <mxCell id="8YzBrKUA3QClfW0Q4QkU-42" value="Quantity" style="text;html=1;strokeColor=none;fillColor=none;align=left;verticalAlign=middle;whiteSpace=wrap;rounded=0;" parent="1" vertex="1">
                    <mxGeometry x="660" y="181" width="70" height="20" as="geometry"/>
                </mxCell>
                <mxCell id="8YzBrKUA3QClfW0Q4QkU-44" value="" style="endArrow=none;html=1;fontSize=9;" parent="1" edge="1">
                    <mxGeometry width="50" height="50" relative="1" as="geometry">
                        <mxPoint x="565" y="219.32999999999998" as="sourcePoint"/>
                        <mxPoint x="745" y="219.32999999999998" as="targetPoint"/>
                    </mxGeometry>
                </mxCell>
                <mxCell id="8YzBrKUA3QClfW0Q4QkU-45" value="" style="rounded=0;whiteSpace=wrap;html=1;" parent="1" vertex="1">
                    <mxGeometry x="80" y="620" width="200" height="280" as="geometry"/>
                </mxCell>
                <mxCell id="8YzBrKUA3QClfW0Q4QkU-46" value="&lt;span style=&quot;font-size: 10px&quot;&gt;&amp;nbsp;Navbar: Categories Register Login Cart&lt;/span&gt;" style="rounded=0;whiteSpace=wrap;html=1;align=center;" parent="1" vertex="1">
                    <mxGeometry x="80" y="620" width="200" height="30" as="geometry"/>
                </mxCell>
                <mxCell id="8YzBrKUA3QClfW0Q4QkU-51" value="Footer" style="rounded=0;whiteSpace=wrap;html=1;" parent="1" vertex="1">
                    <mxGeometry x="80" y="884" width="200" height="60" as="geometry"/>
                </mxCell>
                <mxCell id="8YzBrKUA3QClfW0Q4QkU-52" value="Shopping Cart Detail Page" style="text;html=1;strokeColor=none;fillColor=none;align=left;verticalAlign=middle;whiteSpace=wrap;rounded=0;" parent="1" vertex="1">
                    <mxGeometry x="80" y="600" width="200" height="20" as="geometry"/>
                </mxCell>
                <mxCell id="8YzBrKUA3QClfW0Q4QkU-57" value="Product 1" style="text;html=1;strokeColor=none;fillColor=none;align=left;verticalAlign=middle;whiteSpace=wrap;rounded=0;" parent="1" vertex="1">
                    <mxGeometry x="90" y="700" width="65" height="20" as="geometry"/>
                </mxCell>
                <mxCell id="8YzBrKUA3QClfW0Q4QkU-58" value="Your Shopping Cart" style="text;html=1;strokeColor=none;fillColor=none;align=center;verticalAlign=middle;whiteSpace=wrap;rounded=0;" parent="1" vertex="1">
                    <mxGeometry x="90" y="660" width="170" height="20" as="geometry"/>
                </mxCell>
                <mxCell id="8YzBrKUA3QClfW0Q4QkU-59" value="Product 2" style="text;html=1;strokeColor=none;fillColor=none;align=left;verticalAlign=middle;whiteSpace=wrap;rounded=0;" parent="1" vertex="1">
                    <mxGeometry x="90" y="770" width="65" height="20" as="geometry"/>
                </mxCell>
                <mxCell id="8YzBrKUA3QClfW0Q4QkU-60" value="Product 1" style="text;html=1;strokeColor=none;fillColor=none;align=left;verticalAlign=middle;whiteSpace=wrap;rounded=0;" parent="1" vertex="1">
                    <mxGeometry x="90" y="723" width="65" height="20" as="geometry"/>
                </mxCell>
                <mxCell id="8YzBrKUA3QClfW0Q4QkU-61" value="Product 2" style="text;html=1;strokeColor=none;fillColor=none;align=left;verticalAlign=middle;whiteSpace=wrap;rounded=0;" parent="1" vertex="1">
                    <mxGeometry x="90" y="747" width="65" height="20" as="geometry"/>
                </mxCell>
                <mxCell id="8YzBrKUA3QClfW0Q4QkU-62" value="Price" style="text;html=1;strokeColor=none;fillColor=none;align=left;verticalAlign=middle;whiteSpace=wrap;rounded=0;" parent="1" vertex="1">
                    <mxGeometry x="195" y="700" width="65" height="20" as="geometry"/>
                </mxCell>
                <mxCell id="8YzBrKUA3QClfW0Q4QkU-63" value="Price" style="text;html=1;strokeColor=none;fillColor=none;align=left;verticalAlign=middle;whiteSpace=wrap;rounded=0;" parent="1" vertex="1">
                    <mxGeometry x="195" y="770" width="65" height="20" as="geometry"/>
                </mxCell>
                <mxCell id="8YzBrKUA3QClfW0Q4QkU-64" value="Price" style="text;html=1;strokeColor=none;fillColor=none;align=left;verticalAlign=middle;whiteSpace=wrap;rounded=0;" parent="1" vertex="1">
                    <mxGeometry x="195" y="723" width="65" height="20" as="geometry"/>
                </mxCell>
                <mxCell id="8YzBrKUA3QClfW0Q4QkU-65" value="Price" style="text;html=1;strokeColor=none;fillColor=none;align=left;verticalAlign=middle;whiteSpace=wrap;rounded=0;" parent="1" vertex="1">
                    <mxGeometry x="195" y="747" width="65" height="20" as="geometry"/>
                </mxCell>
                <mxCell id="8YzBrKUA3QClfW0Q4QkU-66" value="Total" style="text;html=1;strokeColor=none;fillColor=none;align=left;verticalAlign=middle;whiteSpace=wrap;rounded=0;" parent="1" vertex="1">
                    <mxGeometry x="195" y="805" width="65" height="20" as="geometry"/>
                </mxCell>
                <mxCell id="8YzBrKUA3QClfW0Q4QkU-67" value="" style="endArrow=none;html=1;fontSize=9;" parent="1" edge="1">
                    <mxGeometry width="50" height="50" relative="1" as="geometry">
                        <mxPoint x="190" y="799" as="sourcePoint"/>
                        <mxPoint x="240" y="799" as="targetPoint"/>
                    </mxGeometry>
                </mxCell>
                <mxCell id="8YzBrKUA3QClfW0Q4QkU-70" value="Remove" style="text;html=1;strokeColor=none;fillColor=none;align=left;verticalAlign=middle;whiteSpace=wrap;rounded=0;fontSize=7;" parent="1" vertex="1">
                    <mxGeometry x="239" y="705" width="30" height="10" as="geometry"/>
                </mxCell>
                <mxCell id="8YzBrKUA3QClfW0Q4QkU-71" value="Remove" style="text;html=1;strokeColor=none;fillColor=none;align=left;verticalAlign=middle;whiteSpace=wrap;rounded=0;fontSize=7;" parent="1" vertex="1">
                    <mxGeometry x="239" y="728" width="30" height="10" as="geometry"/>
                </mxCell>
                <mxCell id="8YzBrKUA3QClfW0Q4QkU-72" value="Remove" style="text;html=1;strokeColor=none;fillColor=none;align=left;verticalAlign=middle;whiteSpace=wrap;rounded=0;fontSize=7;" parent="1" vertex="1">
                    <mxGeometry x="239" y="752" width="30" height="10" as="geometry"/>
                </mxCell>
                <mxCell id="8YzBrKUA3QClfW0Q4QkU-73" value="Remove" style="text;html=1;strokeColor=none;fillColor=none;align=left;verticalAlign=middle;whiteSpace=wrap;rounded=0;fontSize=7;" parent="1" vertex="1">
                    <mxGeometry x="239" y="775" width="30" height="10" as="geometry"/>
                </mxCell>
                <mxCell id="8YzBrKUA3QClfW0Q4QkU-74" value="" style="rounded=0;whiteSpace=wrap;html=1;" parent="1" vertex="1">
                    <mxGeometry x="320" y="620" width="200" height="310" as="geometry"/>
                </mxCell>
                <mxCell id="8YzBrKUA3QClfW0Q4QkU-75" value="&lt;span style=&quot;font-size: 10px&quot;&gt;&amp;nbsp;Navbar: Categories Register Login Cart&lt;/span&gt;" style="rounded=0;whiteSpace=wrap;html=1;align=center;" parent="1" vertex="1">
                    <mxGeometry x="320" y="620" width="200" height="30" as="geometry"/>
                </mxCell>
                <mxCell id="8YzBrKUA3QClfW0Q4QkU-76" value="Footer" style="rounded=0;whiteSpace=wrap;html=1;" parent="1" vertex="1">
                    <mxGeometry x="320" y="920" width="200" height="60" as="geometry"/>
                </mxCell>
                <mxCell id="8YzBrKUA3QClfW0Q4QkU-77" value="User Registration" style="text;html=1;strokeColor=none;fillColor=none;align=left;verticalAlign=middle;whiteSpace=wrap;rounded=0;" parent="1" vertex="1">
                    <mxGeometry x="320" y="600" width="200" height="20" as="geometry"/>
                </mxCell>
                <mxCell id="8YzBrKUA3QClfW0Q4QkU-78" value="Register" style="text;html=1;strokeColor=none;fillColor=none;align=center;verticalAlign=middle;whiteSpace=wrap;rounded=0;" parent="1" vertex="1">
                    <mxGeometry x="335" y="660" width="170" height="20" as="geometry"/>
                </mxCell>
                <mxCell id="8YzBrKUA3QClfW0Q4QkU-79" value="Name" style="text;html=1;strokeColor=none;fillColor=none;align=left;verticalAlign=middle;whiteSpace=wrap;rounded=0;" parent="1" vertex="1">
                    <mxGeometry x="335" y="687" width="65" height="20" as="geometry"/>
                </mxCell>
                <mxCell id="8YzBrKUA3QClfW0Q4QkU-80" value="Street Address" style="text;html=1;strokeColor=none;fillColor=none;align=left;verticalAlign=middle;whiteSpace=wrap;rounded=0;" parent="1" vertex="1">
                    <mxGeometry x="335" y="782" width="105" height="20" as="geometry"/>
                </mxCell>
                <mxCell id="8YzBrKUA3QClfW0Q4QkU-81" value="Email Address" style="text;html=1;strokeColor=none;fillColor=none;align=left;verticalAlign=middle;whiteSpace=wrap;rounded=0;" parent="1" vertex="1">
                    <mxGeometry x="335" y="710" width="85" height="20" as="geometry"/>
                </mxCell>
                <mxCell id="8YzBrKUA3QClfW0Q4QkU-82" value="Password" style="text;html=1;strokeColor=none;fillColor=none;align=left;verticalAlign=middle;whiteSpace=wrap;rounded=0;" parent="1" vertex="1">
                    <mxGeometry x="335" y="733" width="65" height="20" as="geometry"/>
                </mxCell>
                <mxCell id="8YzBrKUA3QClfW0Q4QkU-83" value="Postal Code" style="text;html=1;strokeColor=none;fillColor=none;align=left;verticalAlign=middle;whiteSpace=wrap;rounded=0;" parent="1" vertex="1">
                    <mxGeometry x="335" y="805" width="105" height="20" as="geometry"/>
                </mxCell>
                <mxCell id="8YzBrKUA3QClfW0Q4QkU-84" value="City" style="text;html=1;strokeColor=none;fillColor=none;align=left;verticalAlign=middle;whiteSpace=wrap;rounded=0;" parent="1" vertex="1">
                    <mxGeometry x="335" y="828" width="105" height="20" as="geometry"/>
                </mxCell>
                <mxCell id="8YzBrKUA3QClfW0Q4QkU-85" value="" style="rounded=1;whiteSpace=wrap;html=1;fontSize=5;align=left;" parent="1" vertex="1">
                    <mxGeometry x="420" y="690" width="90" height="17" as="geometry"/>
                </mxCell>
                <mxCell id="8YzBrKUA3QClfW0Q4QkU-86" value="" style="rounded=1;whiteSpace=wrap;html=1;fontSize=5;align=left;" parent="1" vertex="1">
                    <mxGeometry x="420" y="713" width="90" height="17" as="geometry"/>
                </mxCell>
                <mxCell id="8YzBrKUA3QClfW0Q4QkU-87" value="" style="rounded=1;whiteSpace=wrap;html=1;fontSize=5;align=left;" parent="1" vertex="1">
                    <mxGeometry x="420" y="736" width="90" height="17" as="geometry"/>
                </mxCell>
                <mxCell id="8YzBrKUA3QClfW0Q4QkU-88" value="" style="rounded=1;whiteSpace=wrap;html=1;fontSize=5;align=left;" parent="1" vertex="1">
                    <mxGeometry x="420" y="785" width="90" height="17" as="geometry"/>
                </mxCell>
                <mxCell id="8YzBrKUA3QClfW0Q4QkU-89" value="" style="rounded=1;whiteSpace=wrap;html=1;fontSize=5;align=left;" parent="1" vertex="1">
                    <mxGeometry x="420" y="808" width="90" height="17" as="geometry"/>
                </mxCell>
                <mxCell id="8YzBrKUA3QClfW0Q4QkU-90" value="" style="rounded=1;whiteSpace=wrap;html=1;fontSize=5;align=left;" parent="1" vertex="1">
                    <mxGeometry x="420" y="831" width="90" height="17" as="geometry"/>
                </mxCell>
                <mxCell id="8YzBrKUA3QClfW0Q4QkU-91" value="Register" style="rounded=1;whiteSpace=wrap;html=1;align=center;fontSize=9;" parent="1" vertex="1">
                    <mxGeometry x="450" y="856" width="60" height="30" as="geometry"/>
                </mxCell>
                <mxCell id="8YzBrKUA3QClfW0Q4QkU-92" value="Profile Pic" style="text;html=1;strokeColor=none;fillColor=none;align=left;verticalAlign=middle;whiteSpace=wrap;rounded=0;" parent="1" vertex="1">
                    <mxGeometry x="335" y="758" width="105" height="20" as="geometry"/>
                </mxCell>
                <mxCell id="8YzBrKUA3QClfW0Q4QkU-93" value="" style="rounded=1;whiteSpace=wrap;html=1;fontSize=5;align=left;" parent="1" vertex="1">
                    <mxGeometry x="420" y="761" width="60" height="17" as="geometry"/>
                </mxCell>
                <mxCell id="8YzBrKUA3QClfW0Q4QkU-94" value="Upload" style="text;html=1;strokeColor=none;fillColor=none;align=center;verticalAlign=middle;whiteSpace=wrap;rounded=0;fontSize=7;" parent="1" vertex="1">
                    <mxGeometry x="480" y="763" width="30" height="10" as="geometry"/>
                </mxCell>
                <mxCell id="8YzBrKUA3QClfW0Q4QkU-95" value="" style="rounded=0;whiteSpace=wrap;html=1;" parent="1" vertex="1">
                    <mxGeometry x="560" y="620" width="200" height="310" as="geometry"/>
                </mxCell>
                <mxCell id="8YzBrKUA3QClfW0Q4QkU-96" value="&lt;span style=&quot;font-size: 10px&quot;&gt;&amp;nbsp;Navbar: Categories Register Login Cart&lt;/span&gt;" style="rounded=0;whiteSpace=wrap;html=1;align=center;" parent="1" vertex="1">
                    <mxGeometry x="560" y="620" width="200" height="30" as="geometry"/>
                </mxCell>
                <mxCell id="8YzBrKUA3QClfW0Q4QkU-97" value="Footer" style="rounded=0;whiteSpace=wrap;html=1;" parent="1" vertex="1">
                    <mxGeometry x="560" y="920" width="200" height="60" as="geometry"/>
                </mxCell>
                <mxCell id="8YzBrKUA3QClfW0Q4QkU-98" value="User Profile" style="text;html=1;strokeColor=none;fillColor=none;align=left;verticalAlign=middle;whiteSpace=wrap;rounded=0;" parent="1" vertex="1">
                    <mxGeometry x="560" y="600" width="200" height="20" as="geometry"/>
                </mxCell>
                <mxCell id="8YzBrKUA3QClfW0Q4QkU-99" value="User Profile" style="text;html=1;strokeColor=none;fillColor=none;align=center;verticalAlign=middle;whiteSpace=wrap;rounded=0;" parent="1" vertex="1">
                    <mxGeometry x="575" y="660" width="170" height="20" as="geometry"/>
                </mxCell>
                <mxCell id="8YzBrKUA3QClfW0Q4QkU-100" value="Name" style="text;html=1;strokeColor=none;fillColor=none;align=left;verticalAlign=middle;whiteSpace=wrap;rounded=0;" parent="1" vertex="1">
                    <mxGeometry x="575" y="687" width="65" height="20" as="geometry"/>
                </mxCell>
                <mxCell id="8YzBrKUA3QClfW0Q4QkU-101" value="Street Address" style="text;html=1;strokeColor=none;fillColor=none;align=left;verticalAlign=middle;whiteSpace=wrap;rounded=0;" parent="1" vertex="1">
                    <mxGeometry x="575" y="782" width="105" height="20" as="geometry"/>
                </mxCell>
                <mxCell id="8YzBrKUA3QClfW0Q4QkU-102" value="Email Address" style="text;html=1;strokeColor=none;fillColor=none;align=left;verticalAlign=middle;whiteSpace=wrap;rounded=0;" parent="1" vertex="1">
                    <mxGeometry x="575" y="710" width="85" height="20" as="geometry"/>
                </mxCell>
                <mxCell id="8YzBrKUA3QClfW0Q4QkU-103" value="Password" style="text;html=1;strokeColor=none;fillColor=none;align=left;verticalAlign=middle;whiteSpace=wrap;rounded=0;" parent="1" vertex="1">
                    <mxGeometry x="575" y="733" width="65" height="20" as="geometry"/>
                </mxCell>
                <mxCell id="8YzBrKUA3QClfW0Q4QkU-104" value="Postal Code" style="text;html=1;strokeColor=none;fillColor=none;align=left;verticalAlign=middle;whiteSpace=wrap;rounded=0;" parent="1" vertex="1">
                    <mxGeometry x="575" y="805" width="105" height="20" as="geometry"/>
                </mxCell>
                <mxCell id="8YzBrKUA3QClfW0Q4QkU-105" value="City" style="text;html=1;strokeColor=none;fillColor=none;align=left;verticalAlign=middle;whiteSpace=wrap;rounded=0;" parent="1" vertex="1">
                    <mxGeometry x="575" y="828" width="105" height="20" as="geometry"/>
                </mxCell>
                <mxCell id="8YzBrKUA3QClfW0Q4QkU-106" value="Lorem Ipsum" style="rounded=1;whiteSpace=wrap;html=1;fontSize=8;align=left;" parent="1" vertex="1">
                    <mxGeometry x="660" y="690" width="90" height="17" as="geometry"/>
                </mxCell>
                <mxCell id="8YzBrKUA3QClfW0Q4QkU-107" value="&lt;span style=&quot;font-size: 8px;&quot;&gt;Lorem Ipsum&lt;/span&gt;" style="rounded=1;whiteSpace=wrap;html=1;fontSize=8;align=left;" parent="1" vertex="1">
                    <mxGeometry x="660" y="713" width="90" height="17" as="geometry"/>
                </mxCell>
                <mxCell id="8YzBrKUA3QClfW0Q4QkU-108" value="***********" style="rounded=1;whiteSpace=wrap;html=1;fontSize=8;align=left;" parent="1" vertex="1">
                    <mxGeometry x="660" y="736" width="90" height="17" as="geometry"/>
                </mxCell>
                <mxCell id="8YzBrKUA3QClfW0Q4QkU-109" value="&#10;&#10;&lt;span style=&quot;color: rgb(0, 0, 0); font-family: helvetica; font-size: 8px; font-style: normal; font-weight: 400; letter-spacing: normal; text-align: left; text-indent: 0px; text-transform: none; word-spacing: 0px; background-color: rgb(248, 249, 250); display: inline; float: none;&quot;&gt;Lorem Ipsum&lt;/span&gt;&#10;&#10;" style="rounded=1;whiteSpace=wrap;html=1;fontSize=8;align=left;" parent="1" vertex="1">
                    <mxGeometry x="660" y="785" width="90" height="17" as="geometry"/>
                </mxCell>
                <mxCell id="8YzBrKUA3QClfW0Q4QkU-110" value="&lt;span style=&quot;font-size: 8px;&quot;&gt;Lorem Ipsum&lt;/span&gt;" style="rounded=1;whiteSpace=wrap;html=1;fontSize=8;align=left;" parent="1" vertex="1">
                    <mxGeometry x="660" y="808" width="90" height="17" as="geometry"/>
                </mxCell>
                <mxCell id="8YzBrKUA3QClfW0Q4QkU-111" value="&lt;span style=&quot;font-size: 8px;&quot;&gt;Lorem Ipsum&lt;/span&gt;" style="rounded=1;whiteSpace=wrap;html=1;fontSize=8;align=left;" parent="1" vertex="1">
                    <mxGeometry x="660" y="831" width="90" height="17" as="geometry"/>
                </mxCell>
                <mxCell id="8YzBrKUA3QClfW0Q4QkU-112" value="Register" style="rounded=1;whiteSpace=wrap;html=1;align=center;fontSize=9;" parent="1" vertex="1">
                    <mxGeometry x="690" y="856" width="60" height="30" as="geometry"/>
                </mxCell>
                <mxCell id="8YzBrKUA3QClfW0Q4QkU-113" value="Profile Pic" style="text;html=1;strokeColor=none;fillColor=none;align=left;verticalAlign=middle;whiteSpace=wrap;rounded=0;" parent="1" vertex="1">
                    <mxGeometry x="575" y="758" width="105" height="20" as="geometry"/>
                </mxCell>
                <mxCell id="8YzBrKUA3QClfW0Q4QkU-114" value="&lt;span style=&quot;font-size: 8px;&quot;&gt;Lorem Ipsum&lt;/span&gt;" style="rounded=1;whiteSpace=wrap;html=1;fontSize=8;align=left;" parent="1" vertex="1">
                    <mxGeometry x="660" y="761" width="60" height="17" as="geometry"/>
                </mxCell>
                <mxCell id="8YzBrKUA3QClfW0Q4QkU-115" value="Upload" style="text;html=1;strokeColor=none;fillColor=none;align=center;verticalAlign=middle;whiteSpace=wrap;rounded=0;fontSize=7;" parent="1" vertex="1">
                    <mxGeometry x="720" y="763" width="30" height="10" as="geometry"/>
                </mxCell>
                <mxCell id="8YzBrKUA3QClfW0Q4QkU-120" value="" style="rounded=0;whiteSpace=wrap;html=1;" parent="1" vertex="1">
                    <mxGeometry x="80" y="1030" width="230" height="390" as="geometry"/>
                </mxCell>
                <mxCell id="8YzBrKUA3QClfW0Q4QkU-121" value="&lt;span style=&quot;font-size: 10px&quot;&gt;&amp;nbsp;Navbar: Categories Register Login Cart&lt;/span&gt;" style="rounded=0;whiteSpace=wrap;html=1;align=center;" parent="1" vertex="1">
                    <mxGeometry x="80" y="1030" width="230" height="30" as="geometry"/>
                </mxCell>
                <mxCell id="8YzBrKUA3QClfW0Q4QkU-122" value="Footer" style="rounded=0;whiteSpace=wrap;html=1;" parent="1" vertex="1">
                    <mxGeometry x="80" y="1420" width="230" height="60" as="geometry"/>
                </mxCell>
                <mxCell id="8YzBrKUA3QClfW0Q4QkU-123" value="Admin Panel" style="text;html=1;strokeColor=none;fillColor=none;align=left;verticalAlign=middle;whiteSpace=wrap;rounded=0;" parent="1" vertex="1">
                    <mxGeometry x="80" y="1010" width="200" height="20" as="geometry"/>
                </mxCell>
                <mxCell id="8YzBrKUA3QClfW0Q4QkU-124" value="Products" style="text;html=1;strokeColor=none;fillColor=none;align=left;verticalAlign=middle;whiteSpace=wrap;rounded=0;fontSize=10;fontStyle=1" parent="1" vertex="1">
                    <mxGeometry x="88" y="1080" width="40" height="20" as="geometry"/>
                </mxCell>
                <mxCell id="8YzBrKUA3QClfW0Q4QkU-125" value="Name" style="text;html=1;strokeColor=none;fillColor=none;align=left;verticalAlign=middle;whiteSpace=wrap;rounded=0;fontSize=8;" parent="1" vertex="1">
                    <mxGeometry x="88" y="1100" width="40" height="20" as="geometry"/>
                </mxCell>
                <mxCell id="8YzBrKUA3QClfW0Q4QkU-126" value="Category" style="text;html=1;strokeColor=none;fillColor=none;align=center;verticalAlign=middle;whiteSpace=wrap;rounded=0;fontSize=8;" parent="1" vertex="1">
                    <mxGeometry x="120" y="1100" width="40" height="20" as="geometry"/>
                </mxCell>
                <mxCell id="8YzBrKUA3QClfW0Q4QkU-127" value="Description" style="text;html=1;strokeColor=none;fillColor=none;align=center;verticalAlign=middle;whiteSpace=wrap;rounded=0;fontSize=8;" parent="1" vertex="1">
                    <mxGeometry x="160" y="1100" width="40" height="20" as="geometry"/>
                </mxCell>
                <mxCell id="8YzBrKUA3QClfW0Q4QkU-128" value="Price" style="text;html=1;strokeColor=none;fillColor=none;align=center;verticalAlign=middle;whiteSpace=wrap;rounded=0;fontSize=8;" parent="1" vertex="1">
                    <mxGeometry x="194.5" y="1100" width="40" height="20" as="geometry"/>
                </mxCell>
                <mxCell id="8YzBrKUA3QClfW0Q4QkU-130" value="etc." style="text;html=1;strokeColor=none;fillColor=none;align=center;verticalAlign=middle;whiteSpace=wrap;rounded=0;fontSize=8;" parent="1" vertex="1">
                    <mxGeometry x="227" y="1100" width="40" height="20" as="geometry"/>
                </mxCell>
                <mxCell id="8YzBrKUA3QClfW0Q4QkU-132" value="" style="endArrow=none;html=1;fontSize=8;entryX=1;entryY=0;entryDx=0;entryDy=0;" parent="1" target="8YzBrKUA3QClfW0Q4QkU-137" edge="1">
                    <mxGeometry width="50" height="50" relative="1" as="geometry">
                        <mxPoint x="80" y="1120" as="sourcePoint"/>
                        <mxPoint x="340" y="1120" as="targetPoint"/>
                    </mxGeometry>
                </mxCell>
                <mxCell id="8YzBrKUA3QClfW0Q4QkU-133" value="Lorem" style="text;html=1;strokeColor=none;fillColor=none;align=left;verticalAlign=middle;whiteSpace=wrap;rounded=0;fontSize=8;" parent="1" vertex="1">
                    <mxGeometry x="88" y="1120" width="40" height="20" as="geometry"/>
                </mxCell>
                <mxCell id="8YzBrKUA3QClfW0Q4QkU-134" value="&lt;span style=&quot;text-align: left; font-size: 8px;&quot;&gt;Lorem&lt;/span&gt;" style="text;html=1;strokeColor=none;fillColor=none;align=center;verticalAlign=middle;whiteSpace=wrap;rounded=0;fontSize=8;" parent="1" vertex="1">
                    <mxGeometry x="120" y="1120" width="40" height="20" as="geometry"/>
                </mxCell>
                <mxCell id="8YzBrKUA3QClfW0Q4QkU-135" value="&lt;span style=&quot;text-align: left; font-size: 8px;&quot;&gt;Lorem&lt;/span&gt;" style="text;html=1;strokeColor=none;fillColor=none;align=center;verticalAlign=middle;whiteSpace=wrap;rounded=0;fontSize=8;" parent="1" vertex="1">
                    <mxGeometry x="160" y="1120" width="40" height="20" as="geometry"/>
                </mxCell>
                <mxCell id="8YzBrKUA3QClfW0Q4QkU-136" value="&lt;span style=&quot;text-align: left; font-size: 8px;&quot;&gt;Lorem&lt;/span&gt;" style="text;html=1;strokeColor=none;fillColor=none;align=center;verticalAlign=middle;whiteSpace=wrap;rounded=0;fontSize=8;" parent="1" vertex="1">
                    <mxGeometry x="194.5" y="1120" width="40" height="20" as="geometry"/>
                </mxCell>
                <mxCell id="8YzBrKUA3QClfW0Q4QkU-137" value="&lt;span style=&quot;text-align: left; font-size: 8px;&quot;&gt;Lorem&lt;/span&gt;" style="text;html=1;strokeColor=none;fillColor=none;align=center;verticalAlign=middle;whiteSpace=wrap;rounded=0;fontSize=8;" parent="1" vertex="1">
                    <mxGeometry x="227" y="1120" width="40" height="20" as="geometry"/>
                </mxCell>
                <mxCell id="8YzBrKUA3QClfW0Q4QkU-139" value="Lorem" style="text;html=1;strokeColor=none;fillColor=none;align=left;verticalAlign=middle;whiteSpace=wrap;rounded=0;fontSize=8;" parent="1" vertex="1">
                    <mxGeometry x="88" y="1140" width="40" height="20" as="geometry"/>
                </mxCell>
                <mxCell id="8YzBrKUA3QClfW0Q4QkU-140" value="&lt;span style=&quot;text-align: left; font-size: 8px;&quot;&gt;Lorem&lt;/span&gt;" style="text;html=1;strokeColor=none;fillColor=none;align=center;verticalAlign=middle;whiteSpace=wrap;rounded=0;fontSize=8;" parent="1" vertex="1">
                    <mxGeometry x="120" y="1140" width="40" height="20" as="geometry"/>
                </mxCell>
                <mxCell id="8YzBrKUA3QClfW0Q4QkU-141" value="&lt;span style=&quot;text-align: left; font-size: 8px;&quot;&gt;Lorem&lt;/span&gt;" style="text;html=1;strokeColor=none;fillColor=none;align=center;verticalAlign=middle;whiteSpace=wrap;rounded=0;fontSize=8;" parent="1" vertex="1">
                    <mxGeometry x="160" y="1140" width="40" height="20" as="geometry"/>
                </mxCell>
                <mxCell id="8YzBrKUA3QClfW0Q4QkU-142" value="&lt;span style=&quot;text-align: left; font-size: 8px;&quot;&gt;Lorem&lt;/span&gt;" style="text;html=1;strokeColor=none;fillColor=none;align=center;verticalAlign=middle;whiteSpace=wrap;rounded=0;fontSize=8;" parent="1" vertex="1">
                    <mxGeometry x="194.5" y="1140" width="40" height="20" as="geometry"/>
                </mxCell>
                <mxCell id="8YzBrKUA3QClfW0Q4QkU-143" value="&lt;span style=&quot;text-align: left; font-size: 8px;&quot;&gt;Lorem&lt;/span&gt;" style="text;html=1;strokeColor=none;fillColor=none;align=center;verticalAlign=middle;whiteSpace=wrap;rounded=0;fontSize=8;" parent="1" vertex="1">
                    <mxGeometry x="227" y="1140" width="40" height="20" as="geometry"/>
                </mxCell>
                <mxCell id="8YzBrKUA3QClfW0Q4QkU-144" value="Lorem" style="text;html=1;strokeColor=none;fillColor=none;align=left;verticalAlign=middle;whiteSpace=wrap;rounded=0;fontSize=8;" parent="1" vertex="1">
                    <mxGeometry x="88" y="1160" width="40" height="20" as="geometry"/>
                </mxCell>
                <mxCell id="8YzBrKUA3QClfW0Q4QkU-145" value="&lt;span style=&quot;text-align: left; font-size: 8px;&quot;&gt;Lorem&lt;/span&gt;" style="text;html=1;strokeColor=none;fillColor=none;align=center;verticalAlign=middle;whiteSpace=wrap;rounded=0;fontSize=8;" parent="1" vertex="1">
                    <mxGeometry x="120" y="1160" width="40" height="20" as="geometry"/>
                </mxCell>
                <mxCell id="8YzBrKUA3QClfW0Q4QkU-146" value="&lt;span style=&quot;text-align: left; font-size: 8px;&quot;&gt;Lorem&lt;/span&gt;" style="text;html=1;strokeColor=none;fillColor=none;align=center;verticalAlign=middle;whiteSpace=wrap;rounded=0;fontSize=8;" parent="1" vertex="1">
                    <mxGeometry x="160" y="1160" width="40" height="20" as="geometry"/>
                </mxCell>
                <mxCell id="8YzBrKUA3QClfW0Q4QkU-147" value="&lt;span style=&quot;text-align: left; font-size: 8px;&quot;&gt;Lorem&lt;/span&gt;" style="text;html=1;strokeColor=none;fillColor=none;align=center;verticalAlign=middle;whiteSpace=wrap;rounded=0;fontSize=8;" parent="1" vertex="1">
                    <mxGeometry x="194.5" y="1160" width="40" height="20" as="geometry"/>
                </mxCell>
                <mxCell id="8YzBrKUA3QClfW0Q4QkU-148" value="&lt;span style=&quot;text-align: left; font-size: 8px;&quot;&gt;Lorem&lt;/span&gt;" style="text;html=1;strokeColor=none;fillColor=none;align=center;verticalAlign=middle;whiteSpace=wrap;rounded=0;fontSize=8;" parent="1" vertex="1">
                    <mxGeometry x="227" y="1160" width="40" height="20" as="geometry"/>
                </mxCell>
                <mxCell id="8YzBrKUA3QClfW0Q4QkU-149" value="Lorem" style="text;html=1;strokeColor=none;fillColor=none;align=left;verticalAlign=middle;whiteSpace=wrap;rounded=0;fontSize=8;" parent="1" vertex="1">
                    <mxGeometry x="88" y="1180" width="40" height="20" as="geometry"/>
                </mxCell>
                <mxCell id="8YzBrKUA3QClfW0Q4QkU-150" value="&lt;span style=&quot;text-align: left; font-size: 8px;&quot;&gt;Lorem&lt;/span&gt;" style="text;html=1;strokeColor=none;fillColor=none;align=center;verticalAlign=middle;whiteSpace=wrap;rounded=0;fontSize=8;" parent="1" vertex="1">
                    <mxGeometry x="120" y="1180" width="40" height="20" as="geometry"/>
                </mxCell>
                <mxCell id="8YzBrKUA3QClfW0Q4QkU-151" value="&lt;span style=&quot;text-align: left; font-size: 8px;&quot;&gt;Lorem&lt;/span&gt;" style="text;html=1;strokeColor=none;fillColor=none;align=center;verticalAlign=middle;whiteSpace=wrap;rounded=0;fontSize=8;" parent="1" vertex="1">
                    <mxGeometry x="160" y="1180" width="40" height="20" as="geometry"/>
                </mxCell>
                <mxCell id="8YzBrKUA3QClfW0Q4QkU-152" value="&lt;span style=&quot;text-align: left; font-size: 8px;&quot;&gt;Lorem&lt;/span&gt;" style="text;html=1;strokeColor=none;fillColor=none;align=center;verticalAlign=middle;whiteSpace=wrap;rounded=0;fontSize=8;" parent="1" vertex="1">
                    <mxGeometry x="194.5" y="1180" width="40" height="20" as="geometry"/>
                </mxCell>
                <mxCell id="8YzBrKUA3QClfW0Q4QkU-153" value="&lt;span style=&quot;text-align: left; font-size: 8px;&quot;&gt;Lorem&lt;/span&gt;" style="text;html=1;strokeColor=none;fillColor=none;align=center;verticalAlign=middle;whiteSpace=wrap;rounded=0;fontSize=8;" parent="1" vertex="1">
                    <mxGeometry x="227" y="1180" width="40" height="20" as="geometry"/>
                </mxCell>
                <mxCell id="8YzBrKUA3QClfW0Q4QkU-154" value="Pay" style="rounded=1;whiteSpace=wrap;html=1;align=center;fontSize=9;" parent="1" vertex="1">
                    <mxGeometry x="200" y="840" width="60" height="30" as="geometry"/>
                </mxCell>
                <mxCell id="8YzBrKUA3QClfW0Q4QkU-155" value="See All Users" style="rounded=1;whiteSpace=wrap;html=1;align=center;fontSize=9;" parent="1" vertex="1">
                    <mxGeometry x="179" y="1380" width="90" height="30" as="geometry"/>
                </mxCell>
                <mxCell id="8YzBrKUA3QClfW0Q4QkU-156" value="Users" style="text;html=1;strokeColor=none;fillColor=none;align=left;verticalAlign=middle;whiteSpace=wrap;rounded=0;fontSize=10;fontStyle=1" parent="1" vertex="1">
                    <mxGeometry x="88" y="1250" width="40" height="20" as="geometry"/>
                </mxCell>
                <mxCell id="8YzBrKUA3QClfW0Q4QkU-157" value="Name" style="text;html=1;strokeColor=none;fillColor=none;align=left;verticalAlign=middle;whiteSpace=wrap;rounded=0;fontSize=8;" parent="1" vertex="1">
                    <mxGeometry x="88" y="1270" width="40" height="20" as="geometry"/>
                </mxCell>
                <mxCell id="8YzBrKUA3QClfW0Q4QkU-158" value="Email" style="text;html=1;strokeColor=none;fillColor=none;align=center;verticalAlign=middle;whiteSpace=wrap;rounded=0;fontSize=8;" parent="1" vertex="1">
                    <mxGeometry x="130" y="1270" width="40" height="20" as="geometry"/>
                </mxCell>
                <mxCell id="8YzBrKUA3QClfW0Q4QkU-159" value="Image" style="text;html=1;strokeColor=none;fillColor=none;align=center;verticalAlign=middle;whiteSpace=wrap;rounded=0;fontSize=8;" parent="1" vertex="1">
                    <mxGeometry x="178" y="1270" width="40" height="20" as="geometry"/>
                </mxCell>
                <mxCell id="8YzBrKUA3QClfW0Q4QkU-160" value="etc." style="text;html=1;strokeColor=none;fillColor=none;align=center;verticalAlign=middle;whiteSpace=wrap;rounded=0;fontSize=8;" parent="1" vertex="1">
                    <mxGeometry x="223" y="1270" width="40" height="20" as="geometry"/>
                </mxCell>
                <mxCell id="8YzBrKUA3QClfW0Q4QkU-162" value="" style="endArrow=none;html=1;fontSize=8;entryX=1.117;entryY=0.017;entryDx=0;entryDy=0;entryPerimeter=0;" parent="1" target="8YzBrKUA3QClfW0Q4QkU-166" edge="1">
                    <mxGeometry width="50" height="50" relative="1" as="geometry">
                        <mxPoint x="80" y="1290" as="sourcePoint"/>
                        <mxPoint x="290" y="1290" as="targetPoint"/>
                    </mxGeometry>
                </mxCell>
                <mxCell id="8YzBrKUA3QClfW0Q4QkU-163" value="Lorem" style="text;html=1;strokeColor=none;fillColor=none;align=left;verticalAlign=middle;whiteSpace=wrap;rounded=0;fontSize=8;" parent="1" vertex="1">
                    <mxGeometry x="88" y="1290" width="40" height="20" as="geometry"/>
                </mxCell>
                <mxCell id="8YzBrKUA3QClfW0Q4QkU-164" value="&lt;span style=&quot;text-align: left; font-size: 8px;&quot;&gt;Lorem&lt;/span&gt;" style="text;html=1;strokeColor=none;fillColor=none;align=center;verticalAlign=middle;whiteSpace=wrap;rounded=0;fontSize=8;" parent="1" vertex="1">
                    <mxGeometry x="130" y="1290" width="40" height="20" as="geometry"/>
                </mxCell>
                <mxCell id="8YzBrKUA3QClfW0Q4QkU-165" value="&lt;span style=&quot;text-align: left; font-size: 8px;&quot;&gt;Lorem&lt;/span&gt;" style="text;html=1;strokeColor=none;fillColor=none;align=center;verticalAlign=middle;whiteSpace=wrap;rounded=0;fontSize=8;" parent="1" vertex="1">
                    <mxGeometry x="178" y="1290" width="40" height="20" as="geometry"/>
                </mxCell>
                <mxCell id="8YzBrKUA3QClfW0Q4QkU-166" value="&lt;span style=&quot;text-align: left; font-size: 8px;&quot;&gt;Lorem&lt;/span&gt;" style="text;html=1;strokeColor=none;fillColor=none;align=center;verticalAlign=middle;whiteSpace=wrap;rounded=0;fontSize=8;" parent="1" vertex="1">
                    <mxGeometry x="223" y="1290" width="40" height="20" as="geometry"/>
                </mxCell>
                <mxCell id="8YzBrKUA3QClfW0Q4QkU-168" value="Lorem" style="text;html=1;strokeColor=none;fillColor=none;align=left;verticalAlign=middle;whiteSpace=wrap;rounded=0;fontSize=8;" parent="1" vertex="1">
                    <mxGeometry x="88" y="1310" width="40" height="20" as="geometry"/>
                </mxCell>
                <mxCell id="8YzBrKUA3QClfW0Q4QkU-169" value="&lt;span style=&quot;text-align: left; font-size: 8px;&quot;&gt;Lorem&lt;/span&gt;" style="text;html=1;strokeColor=none;fillColor=none;align=center;verticalAlign=middle;whiteSpace=wrap;rounded=0;fontSize=8;" parent="1" vertex="1">
                    <mxGeometry x="130" y="1310" width="40" height="20" as="geometry"/>
                </mxCell>
                <mxCell id="8YzBrKUA3QClfW0Q4QkU-170" value="&lt;span style=&quot;text-align: left; font-size: 8px;&quot;&gt;Lorem&lt;/span&gt;" style="text;html=1;strokeColor=none;fillColor=none;align=center;verticalAlign=middle;whiteSpace=wrap;rounded=0;fontSize=8;" parent="1" vertex="1">
                    <mxGeometry x="178" y="1310" width="40" height="20" as="geometry"/>
                </mxCell>
                <mxCell id="8YzBrKUA3QClfW0Q4QkU-171" value="&lt;span style=&quot;text-align: left; font-size: 8px;&quot;&gt;Lorem&lt;/span&gt;" style="text;html=1;strokeColor=none;fillColor=none;align=center;verticalAlign=middle;whiteSpace=wrap;rounded=0;fontSize=8;" parent="1" vertex="1">
                    <mxGeometry x="223" y="1310" width="40" height="20" as="geometry"/>
                </mxCell>
                <mxCell id="8YzBrKUA3QClfW0Q4QkU-173" value="Lorem" style="text;html=1;strokeColor=none;fillColor=none;align=left;verticalAlign=middle;whiteSpace=wrap;rounded=0;fontSize=8;" parent="1" vertex="1">
                    <mxGeometry x="88" y="1330" width="40" height="20" as="geometry"/>
                </mxCell>
                <mxCell id="8YzBrKUA3QClfW0Q4QkU-174" value="&lt;span style=&quot;text-align: left; font-size: 8px;&quot;&gt;Lorem&lt;/span&gt;" style="text;html=1;strokeColor=none;fillColor=none;align=center;verticalAlign=middle;whiteSpace=wrap;rounded=0;fontSize=8;" parent="1" vertex="1">
                    <mxGeometry x="130" y="1330" width="40" height="20" as="geometry"/>
                </mxCell>
                <mxCell id="8YzBrKUA3QClfW0Q4QkU-175" value="&lt;span style=&quot;text-align: left; font-size: 8px;&quot;&gt;Lorem&lt;/span&gt;" style="text;html=1;strokeColor=none;fillColor=none;align=center;verticalAlign=middle;whiteSpace=wrap;rounded=0;fontSize=8;" parent="1" vertex="1">
                    <mxGeometry x="178" y="1330" width="40" height="20" as="geometry"/>
                </mxCell>
                <mxCell id="8YzBrKUA3QClfW0Q4QkU-176" value="&lt;span style=&quot;text-align: left; font-size: 8px;&quot;&gt;Lorem&lt;/span&gt;" style="text;html=1;strokeColor=none;fillColor=none;align=center;verticalAlign=middle;whiteSpace=wrap;rounded=0;fontSize=8;" parent="1" vertex="1">
                    <mxGeometry x="223" y="1330" width="40" height="20" as="geometry"/>
                </mxCell>
                <mxCell id="8YzBrKUA3QClfW0Q4QkU-178" value="Lorem" style="text;html=1;strokeColor=none;fillColor=none;align=left;verticalAlign=middle;whiteSpace=wrap;rounded=0;fontSize=8;" parent="1" vertex="1">
                    <mxGeometry x="88" y="1350" width="40" height="20" as="geometry"/>
                </mxCell>
                <mxCell id="8YzBrKUA3QClfW0Q4QkU-179" value="&lt;span style=&quot;text-align: left; font-size: 8px;&quot;&gt;Lorem&lt;/span&gt;" style="text;html=1;strokeColor=none;fillColor=none;align=center;verticalAlign=middle;whiteSpace=wrap;rounded=0;fontSize=8;" parent="1" vertex="1">
                    <mxGeometry x="130" y="1350" width="40" height="20" as="geometry"/>
                </mxCell>
                <mxCell id="8YzBrKUA3QClfW0Q4QkU-180" value="&lt;span style=&quot;text-align: left; font-size: 8px;&quot;&gt;Lorem&lt;/span&gt;" style="text;html=1;strokeColor=none;fillColor=none;align=center;verticalAlign=middle;whiteSpace=wrap;rounded=0;fontSize=8;" parent="1" vertex="1">
                    <mxGeometry x="178" y="1350" width="40" height="20" as="geometry"/>
                </mxCell>
                <mxCell id="8YzBrKUA3QClfW0Q4QkU-181" value="&lt;span style=&quot;text-align: left; font-size: 8px;&quot;&gt;Lorem&lt;/span&gt;" style="text;html=1;strokeColor=none;fillColor=none;align=center;verticalAlign=middle;whiteSpace=wrap;rounded=0;fontSize=8;" parent="1" vertex="1">
                    <mxGeometry x="223" y="1350" width="40" height="20" as="geometry"/>
                </mxCell>
                <mxCell id="8YzBrKUA3QClfW0Q4QkU-68" value="See All Products" style="rounded=1;whiteSpace=wrap;html=1;align=center;fontSize=9;" parent="1" vertex="1">
                    <mxGeometry x="180" y="1211" width="90" height="30" as="geometry"/>
                </mxCell>
                <mxCell id="8YzBrKUA3QClfW0Q4QkU-183" value="" style="rounded=0;whiteSpace=wrap;html=1;" parent="1" vertex="1">
                    <mxGeometry x="320" y="1030" width="230" height="280" as="geometry"/>
                </mxCell>
                <mxCell id="8YzBrKUA3QClfW0Q4QkU-184" value="&lt;span style=&quot;font-size: 10px&quot;&gt;&amp;nbsp;Navbar: Categories Register Login Cart&lt;/span&gt;" style="rounded=0;whiteSpace=wrap;html=1;align=center;" parent="1" vertex="1">
                    <mxGeometry x="320" y="1030" width="230" height="30" as="geometry"/>
                </mxCell>
                <mxCell id="8YzBrKUA3QClfW0Q4QkU-185" value="Footer" style="rounded=0;whiteSpace=wrap;html=1;" parent="1" vertex="1">
                    <mxGeometry x="320" y="1300" width="230" height="60" as="geometry"/>
                </mxCell>
                <mxCell id="8YzBrKUA3QClfW0Q4QkU-186" value="User List" style="text;html=1;strokeColor=none;fillColor=none;align=left;verticalAlign=middle;whiteSpace=wrap;rounded=0;" parent="1" vertex="1">
                    <mxGeometry x="320" y="1010" width="200" height="20" as="geometry"/>
                </mxCell>
                <mxCell id="8YzBrKUA3QClfW0Q4QkU-215" value="Users" style="text;html=1;strokeColor=none;fillColor=none;align=left;verticalAlign=middle;whiteSpace=wrap;rounded=0;fontSize=10;fontStyle=1" parent="1" vertex="1">
                    <mxGeometry x="328" y="1070" width="40" height="20" as="geometry"/>
                </mxCell>
                <mxCell id="8YzBrKUA3QClfW0Q4QkU-216" value="Name" style="text;html=1;strokeColor=none;fillColor=none;align=left;verticalAlign=middle;whiteSpace=wrap;rounded=0;fontSize=8;" parent="1" vertex="1">
                    <mxGeometry x="328" y="1090" width="40" height="20" as="geometry"/>
                </mxCell>
                <mxCell id="8YzBrKUA3QClfW0Q4QkU-217" value="Email" style="text;html=1;strokeColor=none;fillColor=none;align=center;verticalAlign=middle;whiteSpace=wrap;rounded=0;fontSize=8;" parent="1" vertex="1">
                    <mxGeometry x="370" y="1090" width="40" height="20" as="geometry"/>
                </mxCell>
                <mxCell id="8YzBrKUA3QClfW0Q4QkU-218" value="Image" style="text;html=1;strokeColor=none;fillColor=none;align=center;verticalAlign=middle;whiteSpace=wrap;rounded=0;fontSize=8;" parent="1" vertex="1">
                    <mxGeometry x="420" y="1090" width="40" height="20" as="geometry"/>
                </mxCell>
                <mxCell id="8YzBrKUA3QClfW0Q4QkU-219" value="etc." style="text;html=1;strokeColor=none;fillColor=none;align=center;verticalAlign=middle;whiteSpace=wrap;rounded=0;fontSize=8;" parent="1" vertex="1">
                    <mxGeometry x="456" y="1090" width="40" height="20" as="geometry"/>
                </mxCell>
                <mxCell id="8YzBrKUA3QClfW0Q4QkU-220" value="" style="endArrow=none;html=1;fontSize=8;entryX=1.117;entryY=0.017;entryDx=0;entryDy=0;entryPerimeter=0;" parent="1" target="8YzBrKUA3QClfW0Q4QkU-224" edge="1">
                    <mxGeometry width="50" height="50" relative="1" as="geometry">
                        <mxPoint x="320" y="1110" as="sourcePoint"/>
                        <mxPoint x="530" y="1110" as="targetPoint"/>
                    </mxGeometry>
                </mxCell>
                <mxCell id="8YzBrKUA3QClfW0Q4QkU-221" value="Lorem" style="text;html=1;strokeColor=none;fillColor=none;align=left;verticalAlign=middle;whiteSpace=wrap;rounded=0;fontSize=8;" parent="1" vertex="1">
                    <mxGeometry x="328" y="1110" width="40" height="20" as="geometry"/>
                </mxCell>
                <mxCell id="8YzBrKUA3QClfW0Q4QkU-222" value="&lt;span style=&quot;text-align: left; font-size: 8px;&quot;&gt;Lorem&lt;/span&gt;" style="text;html=1;strokeColor=none;fillColor=none;align=center;verticalAlign=middle;whiteSpace=wrap;rounded=0;fontSize=8;" parent="1" vertex="1">
                    <mxGeometry x="370" y="1110" width="40" height="20" as="geometry"/>
                </mxCell>
                <mxCell id="8YzBrKUA3QClfW0Q4QkU-223" value="&lt;span style=&quot;text-align: left; font-size: 8px;&quot;&gt;Lorem&lt;/span&gt;" style="text;html=1;strokeColor=none;fillColor=none;align=center;verticalAlign=middle;whiteSpace=wrap;rounded=0;fontSize=8;" parent="1" vertex="1">
                    <mxGeometry x="420" y="1110" width="40" height="20" as="geometry"/>
                </mxCell>
                <mxCell id="8YzBrKUA3QClfW0Q4QkU-224" value="&lt;span style=&quot;text-align: left; font-size: 8px;&quot;&gt;Lorem&lt;/span&gt;" style="text;html=1;strokeColor=none;fillColor=none;align=center;verticalAlign=middle;whiteSpace=wrap;rounded=0;fontSize=8;" parent="1" vertex="1">
                    <mxGeometry x="456" y="1110" width="40" height="20" as="geometry"/>
                </mxCell>
                <mxCell id="8YzBrKUA3QClfW0Q4QkU-225" value="Lorem" style="text;html=1;strokeColor=none;fillColor=none;align=left;verticalAlign=middle;whiteSpace=wrap;rounded=0;fontSize=8;" parent="1" vertex="1">
                    <mxGeometry x="328" y="1130" width="40" height="20" as="geometry"/>
                </mxCell>
                <mxCell id="8YzBrKUA3QClfW0Q4QkU-226" value="&lt;span style=&quot;text-align: left; font-size: 8px;&quot;&gt;Lorem&lt;/span&gt;" style="text;html=1;strokeColor=none;fillColor=none;align=center;verticalAlign=middle;whiteSpace=wrap;rounded=0;fontSize=8;" parent="1" vertex="1">
                    <mxGeometry x="370" y="1130" width="40" height="20" as="geometry"/>
                </mxCell>
                <mxCell id="8YzBrKUA3QClfW0Q4QkU-227" value="&lt;span style=&quot;text-align: left; font-size: 8px;&quot;&gt;Lorem&lt;/span&gt;" style="text;html=1;strokeColor=none;fillColor=none;align=center;verticalAlign=middle;whiteSpace=wrap;rounded=0;fontSize=8;" parent="1" vertex="1">
                    <mxGeometry x="420" y="1130" width="40" height="20" as="geometry"/>
                </mxCell>
                <mxCell id="8YzBrKUA3QClfW0Q4QkU-228" value="&lt;span style=&quot;text-align: left; font-size: 8px;&quot;&gt;Lorem&lt;/span&gt;" style="text;html=1;strokeColor=none;fillColor=none;align=center;verticalAlign=middle;whiteSpace=wrap;rounded=0;fontSize=8;" parent="1" vertex="1">
                    <mxGeometry x="456" y="1130" width="40" height="20" as="geometry"/>
                </mxCell>
                <mxCell id="8YzBrKUA3QClfW0Q4QkU-229" value="Lorem" style="text;html=1;strokeColor=none;fillColor=none;align=left;verticalAlign=middle;whiteSpace=wrap;rounded=0;fontSize=8;" parent="1" vertex="1">
                    <mxGeometry x="328" y="1150" width="40" height="20" as="geometry"/>
                </mxCell>
                <mxCell id="8YzBrKUA3QClfW0Q4QkU-230" value="&lt;span style=&quot;text-align: left; font-size: 8px;&quot;&gt;Lorem&lt;/span&gt;" style="text;html=1;strokeColor=none;fillColor=none;align=center;verticalAlign=middle;whiteSpace=wrap;rounded=0;fontSize=8;" parent="1" vertex="1">
                    <mxGeometry x="370" y="1150" width="40" height="20" as="geometry"/>
                </mxCell>
                <mxCell id="8YzBrKUA3QClfW0Q4QkU-231" value="&lt;span style=&quot;text-align: left; font-size: 8px;&quot;&gt;Lorem&lt;/span&gt;" style="text;html=1;strokeColor=none;fillColor=none;align=center;verticalAlign=middle;whiteSpace=wrap;rounded=0;fontSize=8;" parent="1" vertex="1">
                    <mxGeometry x="420" y="1150" width="40" height="20" as="geometry"/>
                </mxCell>
                <mxCell id="8YzBrKUA3QClfW0Q4QkU-232" value="&lt;span style=&quot;text-align: left; font-size: 8px;&quot;&gt;Lorem&lt;/span&gt;" style="text;html=1;strokeColor=none;fillColor=none;align=center;verticalAlign=middle;whiteSpace=wrap;rounded=0;fontSize=8;" parent="1" vertex="1">
                    <mxGeometry x="456" y="1150" width="40" height="20" as="geometry"/>
                </mxCell>
                <mxCell id="8YzBrKUA3QClfW0Q4QkU-233" value="Lorem" style="text;html=1;strokeColor=none;fillColor=none;align=left;verticalAlign=middle;whiteSpace=wrap;rounded=0;fontSize=8;" parent="1" vertex="1">
                    <mxGeometry x="328" y="1170" width="40" height="20" as="geometry"/>
                </mxCell>
                <mxCell id="8YzBrKUA3QClfW0Q4QkU-234" value="&lt;span style=&quot;text-align: left; font-size: 8px;&quot;&gt;Lorem&lt;/span&gt;" style="text;html=1;strokeColor=none;fillColor=none;align=center;verticalAlign=middle;whiteSpace=wrap;rounded=0;fontSize=8;" parent="1" vertex="1">
                    <mxGeometry x="370" y="1170" width="40" height="20" as="geometry"/>
                </mxCell>
                <mxCell id="8YzBrKUA3QClfW0Q4QkU-235" value="&lt;span style=&quot;text-align: left; font-size: 8px;&quot;&gt;Lorem&lt;/span&gt;" style="text;html=1;strokeColor=none;fillColor=none;align=center;verticalAlign=middle;whiteSpace=wrap;rounded=0;fontSize=8;" parent="1" vertex="1">
                    <mxGeometry x="420" y="1170" width="40" height="20" as="geometry"/>
                </mxCell>
                <mxCell id="8YzBrKUA3QClfW0Q4QkU-236" value="&lt;span style=&quot;text-align: left; font-size: 8px;&quot;&gt;Lorem&lt;/span&gt;" style="text;html=1;strokeColor=none;fillColor=none;align=center;verticalAlign=middle;whiteSpace=wrap;rounded=0;fontSize=8;" parent="1" vertex="1">
                    <mxGeometry x="456" y="1170" width="40" height="20" as="geometry"/>
                </mxCell>
                <mxCell id="8YzBrKUA3QClfW0Q4QkU-240" value="Previous" style="text;html=1;strokeColor=none;fillColor=none;align=center;verticalAlign=middle;whiteSpace=wrap;rounded=0;fontSize=8;" parent="1" vertex="1">
                    <mxGeometry x="420" y="1260" width="40" height="20" as="geometry"/>
                </mxCell>
                <mxCell id="8YzBrKUA3QClfW0Q4QkU-241" value="Next" style="text;html=1;strokeColor=none;fillColor=none;align=center;verticalAlign=middle;whiteSpace=wrap;rounded=0;fontSize=8;" parent="1" vertex="1">
                    <mxGeometry x="472" y="1260" width="40" height="20" as="geometry"/>
                </mxCell>
                <mxCell id="8YzBrKUA3QClfW0Q4QkU-242" value="" style="endArrow=none;html=1;fontSize=8;entryX=1.117;entryY=0.017;entryDx=0;entryDy=0;entryPerimeter=0;" parent="1" edge="1">
                    <mxGeometry width="50" height="50" relative="1" as="geometry">
                        <mxPoint x="320" y="1260" as="sourcePoint"/>
                        <mxPoint x="516.6800000000001" y="1260.3400000000001" as="targetPoint"/>
                    </mxGeometry>
                </mxCell>
                <mxCell id="8YzBrKUA3QClfW0Q4QkU-260" value="Lorem" style="text;html=1;strokeColor=none;fillColor=none;align=left;verticalAlign=middle;whiteSpace=wrap;rounded=0;fontSize=8;" parent="1" vertex="1">
                    <mxGeometry x="328" y="1191" width="40" height="20" as="geometry"/>
                </mxCell>
                <mxCell id="8YzBrKUA3QClfW0Q4QkU-261" value="&lt;span style=&quot;text-align: left; font-size: 8px;&quot;&gt;Lorem&lt;/span&gt;" style="text;html=1;strokeColor=none;fillColor=none;align=center;verticalAlign=middle;whiteSpace=wrap;rounded=0;fontSize=8;" parent="1" vertex="1">
                    <mxGeometry x="370" y="1191" width="40" height="20" as="geometry"/>
                </mxCell>
                <mxCell id="8YzBrKUA3QClfW0Q4QkU-262" value="&lt;span style=&quot;text-align: left; font-size: 8px;&quot;&gt;Lorem&lt;/span&gt;" style="text;html=1;strokeColor=none;fillColor=none;align=center;verticalAlign=middle;whiteSpace=wrap;rounded=0;fontSize=8;" parent="1" vertex="1">
                    <mxGeometry x="420" y="1191" width="40" height="20" as="geometry"/>
                </mxCell>
                <mxCell id="8YzBrKUA3QClfW0Q4QkU-263" value="&lt;span style=&quot;text-align: left; font-size: 8px;&quot;&gt;Lorem&lt;/span&gt;" style="text;html=1;strokeColor=none;fillColor=none;align=center;verticalAlign=middle;whiteSpace=wrap;rounded=0;fontSize=8;" parent="1" vertex="1">
                    <mxGeometry x="456" y="1191" width="40" height="20" as="geometry"/>
                </mxCell>
                <mxCell id="8YzBrKUA3QClfW0Q4QkU-264" value="Lorem" style="text;html=1;strokeColor=none;fillColor=none;align=left;verticalAlign=middle;whiteSpace=wrap;rounded=0;fontSize=8;" parent="1" vertex="1">
                    <mxGeometry x="328" y="1211" width="40" height="20" as="geometry"/>
                </mxCell>
                <mxCell id="8YzBrKUA3QClfW0Q4QkU-265" value="&lt;span style=&quot;text-align: left; font-size: 8px;&quot;&gt;Lorem&lt;/span&gt;" style="text;html=1;strokeColor=none;fillColor=none;align=center;verticalAlign=middle;whiteSpace=wrap;rounded=0;fontSize=8;" parent="1" vertex="1">
                    <mxGeometry x="370" y="1211" width="40" height="20" as="geometry"/>
                </mxCell>
                <mxCell id="8YzBrKUA3QClfW0Q4QkU-266" value="&lt;span style=&quot;text-align: left; font-size: 8px;&quot;&gt;Lorem&lt;/span&gt;" style="text;html=1;strokeColor=none;fillColor=none;align=center;verticalAlign=middle;whiteSpace=wrap;rounded=0;fontSize=8;" parent="1" vertex="1">
                    <mxGeometry x="420" y="1211" width="40" height="20" as="geometry"/>
                </mxCell>
                <mxCell id="8YzBrKUA3QClfW0Q4QkU-267" value="&lt;span style=&quot;text-align: left; font-size: 8px;&quot;&gt;Lorem&lt;/span&gt;" style="text;html=1;strokeColor=none;fillColor=none;align=center;verticalAlign=middle;whiteSpace=wrap;rounded=0;fontSize=8;" parent="1" vertex="1">
                    <mxGeometry x="456" y="1211" width="40" height="20" as="geometry"/>
                </mxCell>
                <mxCell id="8YzBrKUA3QClfW0Q4QkU-268" value="Lorem" style="text;html=1;strokeColor=none;fillColor=none;align=left;verticalAlign=middle;whiteSpace=wrap;rounded=0;fontSize=8;" parent="1" vertex="1">
                    <mxGeometry x="328" y="1231" width="40" height="20" as="geometry"/>
                </mxCell>
                <mxCell id="8YzBrKUA3QClfW0Q4QkU-269" value="&lt;span style=&quot;text-align: left; font-size: 8px;&quot;&gt;Lorem&lt;/span&gt;" style="text;html=1;strokeColor=none;fillColor=none;align=center;verticalAlign=middle;whiteSpace=wrap;rounded=0;fontSize=8;" parent="1" vertex="1">
                    <mxGeometry x="370" y="1231" width="40" height="20" as="geometry"/>
                </mxCell>
                <mxCell id="8YzBrKUA3QClfW0Q4QkU-270" value="&lt;span style=&quot;text-align: left; font-size: 8px;&quot;&gt;Lorem&lt;/span&gt;" style="text;html=1;strokeColor=none;fillColor=none;align=center;verticalAlign=middle;whiteSpace=wrap;rounded=0;fontSize=8;" parent="1" vertex="1">
                    <mxGeometry x="420" y="1231" width="40" height="20" as="geometry"/>
                </mxCell>
                <mxCell id="8YzBrKUA3QClfW0Q4QkU-271" value="&lt;span style=&quot;text-align: left; font-size: 8px;&quot;&gt;Lorem&lt;/span&gt;" style="text;html=1;strokeColor=none;fillColor=none;align=center;verticalAlign=middle;whiteSpace=wrap;rounded=0;fontSize=8;" parent="1" vertex="1">
                    <mxGeometry x="456" y="1231" width="40" height="20" as="geometry"/>
                </mxCell>
                <mxCell id="8YzBrKUA3QClfW0Q4QkU-272" value="" style="rounded=0;whiteSpace=wrap;html=1;" parent="1" vertex="1">
                    <mxGeometry x="560" y="1030" width="230" height="280" as="geometry"/>
                </mxCell>
                <mxCell id="8YzBrKUA3QClfW0Q4QkU-273" value="&lt;span style=&quot;font-size: 10px&quot;&gt;&amp;nbsp;Navbar: Categories Register Login Cart&lt;/span&gt;" style="rounded=0;whiteSpace=wrap;html=1;align=center;" parent="1" vertex="1">
                    <mxGeometry x="560" y="1030" width="200" height="30" as="geometry"/>
                </mxCell>
                <mxCell id="8YzBrKUA3QClfW0Q4QkU-274" value="Footer" style="rounded=0;whiteSpace=wrap;html=1;" parent="1" vertex="1">
                    <mxGeometry x="560" y="1300" width="230" height="60" as="geometry"/>
                </mxCell>
                <mxCell id="8YzBrKUA3QClfW0Q4QkU-275" value="Product List" style="text;html=1;strokeColor=none;fillColor=none;align=left;verticalAlign=middle;whiteSpace=wrap;rounded=0;" parent="1" vertex="1">
                    <mxGeometry x="560" y="1010" width="200" height="20" as="geometry"/>
                </mxCell>
                <mxCell id="8YzBrKUA3QClfW0Q4QkU-298" value="Previous" style="text;html=1;strokeColor=none;fillColor=none;align=center;verticalAlign=middle;whiteSpace=wrap;rounded=0;fontSize=8;" parent="1" vertex="1">
                    <mxGeometry x="660" y="1260" width="40" height="20" as="geometry"/>
                </mxCell>
                <mxCell id="8YzBrKUA3QClfW0Q4QkU-299" value="Next" style="text;html=1;strokeColor=none;fillColor=none;align=center;verticalAlign=middle;whiteSpace=wrap;rounded=0;fontSize=8;" parent="1" vertex="1">
                    <mxGeometry x="712" y="1260" width="40" height="20" as="geometry"/>
                </mxCell>
                <mxCell id="8YzBrKUA3QClfW0Q4QkU-300" value="" style="endArrow=none;html=1;fontSize=8;entryX=1.117;entryY=0.017;entryDx=0;entryDy=0;entryPerimeter=0;" parent="1" edge="1">
                    <mxGeometry width="50" height="50" relative="1" as="geometry">
                        <mxPoint x="560" y="1260" as="sourcePoint"/>
                        <mxPoint x="756.6800000000001" y="1260.3400000000001" as="targetPoint"/>
                    </mxGeometry>
                </mxCell>
                <mxCell id="8YzBrKUA3QClfW0Q4QkU-313" value="Products" style="text;html=1;strokeColor=none;fillColor=none;align=left;verticalAlign=middle;whiteSpace=wrap;rounded=0;fontSize=10;fontStyle=1" parent="1" vertex="1">
                    <mxGeometry x="567" y="1070" width="40" height="20" as="geometry"/>
                </mxCell>
                <mxCell id="8YzBrKUA3QClfW0Q4QkU-314" value="Name" style="text;html=1;strokeColor=none;fillColor=none;align=left;verticalAlign=middle;whiteSpace=wrap;rounded=0;fontSize=8;" parent="1" vertex="1">
                    <mxGeometry x="567" y="1090" width="40" height="20" as="geometry"/>
                </mxCell>
                <mxCell id="8YzBrKUA3QClfW0Q4QkU-315" value="Category" style="text;html=1;strokeColor=none;fillColor=none;align=center;verticalAlign=middle;whiteSpace=wrap;rounded=0;fontSize=8;" parent="1" vertex="1">
                    <mxGeometry x="599" y="1090" width="40" height="20" as="geometry"/>
                </mxCell>
                <mxCell id="8YzBrKUA3QClfW0Q4QkU-316" value="Description" style="text;html=1;strokeColor=none;fillColor=none;align=center;verticalAlign=middle;whiteSpace=wrap;rounded=0;fontSize=8;" parent="1" vertex="1">
                    <mxGeometry x="639" y="1090" width="40" height="20" as="geometry"/>
                </mxCell>
                <mxCell id="8YzBrKUA3QClfW0Q4QkU-317" value="Price" style="text;html=1;strokeColor=none;fillColor=none;align=center;verticalAlign=middle;whiteSpace=wrap;rounded=0;fontSize=8;" parent="1" vertex="1">
                    <mxGeometry x="673.5" y="1090" width="40" height="20" as="geometry"/>
                </mxCell>
                <mxCell id="8YzBrKUA3QClfW0Q4QkU-318" value="etc." style="text;html=1;strokeColor=none;fillColor=none;align=center;verticalAlign=middle;whiteSpace=wrap;rounded=0;fontSize=8;" parent="1" vertex="1">
                    <mxGeometry x="706" y="1090" width="40" height="20" as="geometry"/>
                </mxCell>
                <mxCell id="8YzBrKUA3QClfW0Q4QkU-319" value="" style="endArrow=none;html=1;fontSize=8;entryX=1;entryY=0;entryDx=0;entryDy=0;" parent="1" target="8YzBrKUA3QClfW0Q4QkU-324" edge="1">
                    <mxGeometry width="50" height="50" relative="1" as="geometry">
                        <mxPoint x="559" y="1110" as="sourcePoint"/>
                        <mxPoint x="819" y="1110" as="targetPoint"/>
                    </mxGeometry>
                </mxCell>
                <mxCell id="8YzBrKUA3QClfW0Q4QkU-320" value="Lorem" style="text;html=1;strokeColor=none;fillColor=none;align=left;verticalAlign=middle;whiteSpace=wrap;rounded=0;fontSize=8;" parent="1" vertex="1">
                    <mxGeometry x="567" y="1110" width="40" height="20" as="geometry"/>
                </mxCell>
                <mxCell id="8YzBrKUA3QClfW0Q4QkU-321" value="&lt;span style=&quot;text-align: left; font-size: 8px;&quot;&gt;Lorem&lt;/span&gt;" style="text;html=1;strokeColor=none;fillColor=none;align=center;verticalAlign=middle;whiteSpace=wrap;rounded=0;fontSize=8;" parent="1" vertex="1">
                    <mxGeometry x="599" y="1110" width="40" height="20" as="geometry"/>
                </mxCell>
                <mxCell id="8YzBrKUA3QClfW0Q4QkU-322" value="&lt;span style=&quot;text-align: left; font-size: 8px;&quot;&gt;Lorem&lt;/span&gt;" style="text;html=1;strokeColor=none;fillColor=none;align=center;verticalAlign=middle;whiteSpace=wrap;rounded=0;fontSize=8;" parent="1" vertex="1">
                    <mxGeometry x="639" y="1110" width="40" height="20" as="geometry"/>
                </mxCell>
                <mxCell id="8YzBrKUA3QClfW0Q4QkU-323" value="&lt;span style=&quot;text-align: left; font-size: 8px;&quot;&gt;Lorem&lt;/span&gt;" style="text;html=1;strokeColor=none;fillColor=none;align=center;verticalAlign=middle;whiteSpace=wrap;rounded=0;fontSize=8;" parent="1" vertex="1">
                    <mxGeometry x="673.5" y="1110" width="40" height="20" as="geometry"/>
                </mxCell>
                <mxCell id="8YzBrKUA3QClfW0Q4QkU-324" value="&lt;span style=&quot;text-align: left; font-size: 8px;&quot;&gt;Lorem&lt;/span&gt;" style="text;html=1;strokeColor=none;fillColor=none;align=center;verticalAlign=middle;whiteSpace=wrap;rounded=0;fontSize=8;" parent="1" vertex="1">
                    <mxGeometry x="706" y="1110" width="40" height="20" as="geometry"/>
                </mxCell>
                <mxCell id="8YzBrKUA3QClfW0Q4QkU-325" value="Lorem" style="text;html=1;strokeColor=none;fillColor=none;align=left;verticalAlign=middle;whiteSpace=wrap;rounded=0;fontSize=8;" parent="1" vertex="1">
                    <mxGeometry x="567" y="1130" width="40" height="20" as="geometry"/>
                </mxCell>
                <mxCell id="8YzBrKUA3QClfW0Q4QkU-326" value="&lt;span style=&quot;text-align: left; font-size: 8px;&quot;&gt;Lorem&lt;/span&gt;" style="text;html=1;strokeColor=none;fillColor=none;align=center;verticalAlign=middle;whiteSpace=wrap;rounded=0;fontSize=8;" parent="1" vertex="1">
                    <mxGeometry x="599" y="1130" width="40" height="20" as="geometry"/>
                </mxCell>
                <mxCell id="8YzBrKUA3QClfW0Q4QkU-327" value="&lt;span style=&quot;text-align: left; font-size: 8px;&quot;&gt;Lorem&lt;/span&gt;" style="text;html=1;strokeColor=none;fillColor=none;align=center;verticalAlign=middle;whiteSpace=wrap;rounded=0;fontSize=8;" parent="1" vertex="1">
                    <mxGeometry x="639" y="1130" width="40" height="20" as="geometry"/>
                </mxCell>
                <mxCell id="8YzBrKUA3QClfW0Q4QkU-328" value="&lt;span style=&quot;text-align: left; font-size: 8px;&quot;&gt;Lorem&lt;/span&gt;" style="text;html=1;strokeColor=none;fillColor=none;align=center;verticalAlign=middle;whiteSpace=wrap;rounded=0;fontSize=8;" parent="1" vertex="1">
                    <mxGeometry x="673.5" y="1130" width="40" height="20" as="geometry"/>
                </mxCell>
                <mxCell id="8YzBrKUA3QClfW0Q4QkU-329" value="&lt;span style=&quot;text-align: left; font-size: 8px;&quot;&gt;Lorem&lt;/span&gt;" style="text;html=1;strokeColor=none;fillColor=none;align=center;verticalAlign=middle;whiteSpace=wrap;rounded=0;fontSize=8;" parent="1" vertex="1">
                    <mxGeometry x="706" y="1130" width="40" height="20" as="geometry"/>
                </mxCell>
                <mxCell id="8YzBrKUA3QClfW0Q4QkU-330" value="Lorem" style="text;html=1;strokeColor=none;fillColor=none;align=left;verticalAlign=middle;whiteSpace=wrap;rounded=0;fontSize=8;" parent="1" vertex="1">
                    <mxGeometry x="567" y="1150" width="40" height="20" as="geometry"/>
                </mxCell>
                <mxCell id="8YzBrKUA3QClfW0Q4QkU-331" value="&lt;span style=&quot;text-align: left; font-size: 8px;&quot;&gt;Lorem&lt;/span&gt;" style="text;html=1;strokeColor=none;fillColor=none;align=center;verticalAlign=middle;whiteSpace=wrap;rounded=0;fontSize=8;" parent="1" vertex="1">
                    <mxGeometry x="599" y="1150" width="40" height="20" as="geometry"/>
                </mxCell>
                <mxCell id="8YzBrKUA3QClfW0Q4QkU-332" value="&lt;span style=&quot;text-align: left; font-size: 8px;&quot;&gt;Lorem&lt;/span&gt;" style="text;html=1;strokeColor=none;fillColor=none;align=center;verticalAlign=middle;whiteSpace=wrap;rounded=0;fontSize=8;" parent="1" vertex="1">
                    <mxGeometry x="639" y="1150" width="40" height="20" as="geometry"/>
                </mxCell>
                <mxCell id="8YzBrKUA3QClfW0Q4QkU-333" value="&lt;span style=&quot;text-align: left; font-size: 8px;&quot;&gt;Lorem&lt;/span&gt;" style="text;html=1;strokeColor=none;fillColor=none;align=center;verticalAlign=middle;whiteSpace=wrap;rounded=0;fontSize=8;" parent="1" vertex="1">
                    <mxGeometry x="673.5" y="1150" width="40" height="20" as="geometry"/>
                </mxCell>
                <mxCell id="8YzBrKUA3QClfW0Q4QkU-334" value="&lt;span style=&quot;text-align: left; font-size: 8px;&quot;&gt;Lorem&lt;/span&gt;" style="text;html=1;strokeColor=none;fillColor=none;align=center;verticalAlign=middle;whiteSpace=wrap;rounded=0;fontSize=8;" parent="1" vertex="1">
                    <mxGeometry x="706" y="1150" width="40" height="20" as="geometry"/>
                </mxCell>
                <mxCell id="8YzBrKUA3QClfW0Q4QkU-335" value="Lorem" style="text;html=1;strokeColor=none;fillColor=none;align=left;verticalAlign=middle;whiteSpace=wrap;rounded=0;fontSize=8;" parent="1" vertex="1">
                    <mxGeometry x="567" y="1170" width="40" height="20" as="geometry"/>
                </mxCell>
                <mxCell id="8YzBrKUA3QClfW0Q4QkU-336" value="&lt;span style=&quot;text-align: left; font-size: 8px;&quot;&gt;Lorem&lt;/span&gt;" style="text;html=1;strokeColor=none;fillColor=none;align=center;verticalAlign=middle;whiteSpace=wrap;rounded=0;fontSize=8;" parent="1" vertex="1">
                    <mxGeometry x="599" y="1170" width="40" height="20" as="geometry"/>
                </mxCell>
                <mxCell id="8YzBrKUA3QClfW0Q4QkU-337" value="&lt;span style=&quot;text-align: left; font-size: 8px;&quot;&gt;Lorem&lt;/span&gt;" style="text;html=1;strokeColor=none;fillColor=none;align=center;verticalAlign=middle;whiteSpace=wrap;rounded=0;fontSize=8;" parent="1" vertex="1">
                    <mxGeometry x="639" y="1170" width="40" height="20" as="geometry"/>
                </mxCell>
                <mxCell id="8YzBrKUA3QClfW0Q4QkU-338" value="&lt;span style=&quot;text-align: left; font-size: 8px;&quot;&gt;Lorem&lt;/span&gt;" style="text;html=1;strokeColor=none;fillColor=none;align=center;verticalAlign=middle;whiteSpace=wrap;rounded=0;fontSize=8;" parent="1" vertex="1">
                    <mxGeometry x="673.5" y="1170" width="40" height="20" as="geometry"/>
                </mxCell>
                <mxCell id="8YzBrKUA3QClfW0Q4QkU-339" value="&lt;span style=&quot;text-align: left; font-size: 8px;&quot;&gt;Lorem&lt;/span&gt;" style="text;html=1;strokeColor=none;fillColor=none;align=center;verticalAlign=middle;whiteSpace=wrap;rounded=0;fontSize=8;" parent="1" vertex="1">
                    <mxGeometry x="706" y="1170" width="40" height="20" as="geometry"/>
                </mxCell>
                <mxCell id="8YzBrKUA3QClfW0Q4QkU-340" value="Lorem" style="text;html=1;strokeColor=none;fillColor=none;align=left;verticalAlign=middle;whiteSpace=wrap;rounded=0;fontSize=8;" parent="1" vertex="1">
                    <mxGeometry x="567" y="1190" width="40" height="20" as="geometry"/>
                </mxCell>
                <mxCell id="8YzBrKUA3QClfW0Q4QkU-341" value="&lt;span style=&quot;text-align: left; font-size: 8px;&quot;&gt;Lorem&lt;/span&gt;" style="text;html=1;strokeColor=none;fillColor=none;align=center;verticalAlign=middle;whiteSpace=wrap;rounded=0;fontSize=8;" parent="1" vertex="1">
                    <mxGeometry x="599" y="1190" width="40" height="20" as="geometry"/>
                </mxCell>
                <mxCell id="8YzBrKUA3QClfW0Q4QkU-342" value="&lt;span style=&quot;text-align: left; font-size: 8px;&quot;&gt;Lorem&lt;/span&gt;" style="text;html=1;strokeColor=none;fillColor=none;align=center;verticalAlign=middle;whiteSpace=wrap;rounded=0;fontSize=8;" parent="1" vertex="1">
                    <mxGeometry x="639" y="1190" width="40" height="20" as="geometry"/>
                </mxCell>
                <mxCell id="8YzBrKUA3QClfW0Q4QkU-343" value="&lt;span style=&quot;text-align: left; font-size: 8px;&quot;&gt;Lorem&lt;/span&gt;" style="text;html=1;strokeColor=none;fillColor=none;align=center;verticalAlign=middle;whiteSpace=wrap;rounded=0;fontSize=8;" parent="1" vertex="1">
                    <mxGeometry x="673.5" y="1190" width="40" height="20" as="geometry"/>
                </mxCell>
                <mxCell id="8YzBrKUA3QClfW0Q4QkU-344" value="&lt;span style=&quot;text-align: left; font-size: 8px;&quot;&gt;Lorem&lt;/span&gt;" style="text;html=1;strokeColor=none;fillColor=none;align=center;verticalAlign=middle;whiteSpace=wrap;rounded=0;fontSize=8;" parent="1" vertex="1">
                    <mxGeometry x="706" y="1190" width="40" height="20" as="geometry"/>
                </mxCell>
                <mxCell id="8YzBrKUA3QClfW0Q4QkU-345" value="Lorem" style="text;html=1;strokeColor=none;fillColor=none;align=left;verticalAlign=middle;whiteSpace=wrap;rounded=0;fontSize=8;" parent="1" vertex="1">
                    <mxGeometry x="567" y="1210" width="40" height="20" as="geometry"/>
                </mxCell>
                <mxCell id="8YzBrKUA3QClfW0Q4QkU-346" value="&lt;span style=&quot;text-align: left; font-size: 8px;&quot;&gt;Lorem&lt;/span&gt;" style="text;html=1;strokeColor=none;fillColor=none;align=center;verticalAlign=middle;whiteSpace=wrap;rounded=0;fontSize=8;" parent="1" vertex="1">
                    <mxGeometry x="599" y="1210" width="40" height="20" as="geometry"/>
                </mxCell>
                <mxCell id="8YzBrKUA3QClfW0Q4QkU-347" value="&lt;span style=&quot;text-align: left; font-size: 8px;&quot;&gt;Lorem&lt;/span&gt;" style="text;html=1;strokeColor=none;fillColor=none;align=center;verticalAlign=middle;whiteSpace=wrap;rounded=0;fontSize=8;" parent="1" vertex="1">
                    <mxGeometry x="639" y="1210" width="40" height="20" as="geometry"/>
                </mxCell>
                <mxCell id="8YzBrKUA3QClfW0Q4QkU-348" value="&lt;span style=&quot;text-align: left; font-size: 8px;&quot;&gt;Lorem&lt;/span&gt;" style="text;html=1;strokeColor=none;fillColor=none;align=center;verticalAlign=middle;whiteSpace=wrap;rounded=0;fontSize=8;" parent="1" vertex="1">
                    <mxGeometry x="673.5" y="1210" width="40" height="20" as="geometry"/>
                </mxCell>
                <mxCell id="8YzBrKUA3QClfW0Q4QkU-349" value="&lt;span style=&quot;text-align: left; font-size: 8px;&quot;&gt;Lorem&lt;/span&gt;" style="text;html=1;strokeColor=none;fillColor=none;align=center;verticalAlign=middle;whiteSpace=wrap;rounded=0;fontSize=8;" parent="1" vertex="1">
                    <mxGeometry x="706" y="1210" width="40" height="20" as="geometry"/>
                </mxCell>
                <mxCell id="8YzBrKUA3QClfW0Q4QkU-350" value="Lorem" style="text;html=1;strokeColor=none;fillColor=none;align=left;verticalAlign=middle;whiteSpace=wrap;rounded=0;fontSize=8;" parent="1" vertex="1">
                    <mxGeometry x="567" y="1230" width="40" height="20" as="geometry"/>
                </mxCell>
                <mxCell id="8YzBrKUA3QClfW0Q4QkU-351" value="&lt;span style=&quot;text-align: left; font-size: 8px;&quot;&gt;Lorem&lt;/span&gt;" style="text;html=1;strokeColor=none;fillColor=none;align=center;verticalAlign=middle;whiteSpace=wrap;rounded=0;fontSize=8;" parent="1" vertex="1">
                    <mxGeometry x="599" y="1230" width="40" height="20" as="geometry"/>
                </mxCell>
                <mxCell id="8YzBrKUA3QClfW0Q4QkU-352" value="&lt;span style=&quot;text-align: left; font-size: 8px;&quot;&gt;Lorem&lt;/span&gt;" style="text;html=1;strokeColor=none;fillColor=none;align=center;verticalAlign=middle;whiteSpace=wrap;rounded=0;fontSize=8;" parent="1" vertex="1">
                    <mxGeometry x="639" y="1230" width="40" height="20" as="geometry"/>
                </mxCell>
                <mxCell id="8YzBrKUA3QClfW0Q4QkU-353" value="&lt;span style=&quot;text-align: left; font-size: 8px;&quot;&gt;Lorem&lt;/span&gt;" style="text;html=1;strokeColor=none;fillColor=none;align=center;verticalAlign=middle;whiteSpace=wrap;rounded=0;fontSize=8;" parent="1" vertex="1">
                    <mxGeometry x="673.5" y="1230" width="40" height="20" as="geometry"/>
                </mxCell>
                <mxCell id="8YzBrKUA3QClfW0Q4QkU-354" value="&lt;span style=&quot;text-align: left; font-size: 8px;&quot;&gt;Lorem&lt;/span&gt;" style="text;html=1;strokeColor=none;fillColor=none;align=center;verticalAlign=middle;whiteSpace=wrap;rounded=0;fontSize=8;" parent="1" vertex="1">
                    <mxGeometry x="706" y="1230" width="40" height="20" as="geometry"/>
                </mxCell>
                <mxCell id="8YzBrKUA3QClfW0Q4QkU-355" value="" style="rounded=0;whiteSpace=wrap;html=1;" parent="1" vertex="1">
                    <mxGeometry x="80" y="1540" width="200" height="310" as="geometry"/>
                </mxCell>
                <mxCell id="8YzBrKUA3QClfW0Q4QkU-356" value="&lt;span style=&quot;font-size: 10px&quot;&gt;&amp;nbsp;Navbar: Categories Register Login Cart&lt;/span&gt;" style="rounded=0;whiteSpace=wrap;html=1;align=center;" parent="1" vertex="1">
                    <mxGeometry x="80" y="1540" width="200" height="30" as="geometry"/>
                </mxCell>
                <mxCell id="8YzBrKUA3QClfW0Q4QkU-357" value="Footer" style="rounded=0;whiteSpace=wrap;html=1;" parent="1" vertex="1">
                    <mxGeometry x="80" y="1820" width="200" height="60" as="geometry"/>
                </mxCell>
                <mxCell id="8YzBrKUA3QClfW0Q4QkU-358" value="Create Product" style="text;html=1;strokeColor=none;fillColor=none;align=left;verticalAlign=middle;whiteSpace=wrap;rounded=0;" parent="1" vertex="1">
                    <mxGeometry x="80" y="1520" width="200" height="20" as="geometry"/>
                </mxCell>
                <mxCell id="8YzBrKUA3QClfW0Q4QkU-359" value="New Product" style="text;html=1;strokeColor=none;fillColor=none;align=center;verticalAlign=middle;whiteSpace=wrap;rounded=0;" parent="1" vertex="1">
                    <mxGeometry x="95" y="1580" width="170" height="20" as="geometry"/>
                </mxCell>
                <mxCell id="8YzBrKUA3QClfW0Q4QkU-360" value="Name" style="text;html=1;strokeColor=none;fillColor=none;align=left;verticalAlign=middle;whiteSpace=wrap;rounded=0;" parent="1" vertex="1">
                    <mxGeometry x="95" y="1607" width="65" height="20" as="geometry"/>
                </mxCell>
                <mxCell id="8YzBrKUA3QClfW0Q4QkU-361" value="Category" style="text;html=1;strokeColor=none;fillColor=none;align=left;verticalAlign=middle;whiteSpace=wrap;rounded=0;" parent="1" vertex="1">
                    <mxGeometry x="95" y="1702" width="105" height="20" as="geometry"/>
                </mxCell>
                <mxCell id="8YzBrKUA3QClfW0Q4QkU-362" value="Description" style="text;html=1;strokeColor=none;fillColor=none;align=left;verticalAlign=middle;whiteSpace=wrap;rounded=0;" parent="1" vertex="1">
                    <mxGeometry x="95" y="1630" width="85" height="20" as="geometry"/>
                </mxCell>
                <mxCell id="8YzBrKUA3QClfW0Q4QkU-363" value="Price" style="text;html=1;strokeColor=none;fillColor=none;align=left;verticalAlign=middle;whiteSpace=wrap;rounded=0;" parent="1" vertex="1">
                    <mxGeometry x="95" y="1653" width="65" height="20" as="geometry"/>
                </mxCell>
                <mxCell id="8YzBrKUA3QClfW0Q4QkU-364" value="Quantity" style="text;html=1;strokeColor=none;fillColor=none;align=left;verticalAlign=middle;whiteSpace=wrap;rounded=0;" parent="1" vertex="1">
                    <mxGeometry x="95" y="1725" width="105" height="20" as="geometry"/>
                </mxCell>
                <mxCell id="8YzBrKUA3QClfW0Q4QkU-365" value="Enabled" style="text;html=1;strokeColor=none;fillColor=none;align=left;verticalAlign=middle;whiteSpace=wrap;rounded=0;" parent="1" vertex="1">
                    <mxGeometry x="95" y="1748" width="105" height="20" as="geometry"/>
                </mxCell>
                <mxCell id="8YzBrKUA3QClfW0Q4QkU-366" value="" style="rounded=1;whiteSpace=wrap;html=1;fontSize=5;align=left;" parent="1" vertex="1">
                    <mxGeometry x="180" y="1610" width="90" height="17" as="geometry"/>
                </mxCell>
                <mxCell id="8YzBrKUA3QClfW0Q4QkU-367" value="" style="rounded=1;whiteSpace=wrap;html=1;fontSize=5;align=left;" parent="1" vertex="1">
                    <mxGeometry x="180" y="1633" width="90" height="17" as="geometry"/>
                </mxCell>
                <mxCell id="8YzBrKUA3QClfW0Q4QkU-368" value="" style="rounded=1;whiteSpace=wrap;html=1;fontSize=5;align=left;" parent="1" vertex="1">
                    <mxGeometry x="180" y="1656" width="90" height="17" as="geometry"/>
                </mxCell>
                <mxCell id="8YzBrKUA3QClfW0Q4QkU-369" value="" style="rounded=1;whiteSpace=wrap;html=1;fontSize=5;align=left;" parent="1" vertex="1">
                    <mxGeometry x="180" y="1705" width="90" height="17" as="geometry"/>
                </mxCell>
                <mxCell id="8YzBrKUA3QClfW0Q4QkU-370" value="" style="rounded=1;whiteSpace=wrap;html=1;fontSize=5;align=left;" parent="1" vertex="1">
                    <mxGeometry x="180" y="1728" width="90" height="17" as="geometry"/>
                </mxCell>
                <mxCell id="8YzBrKUA3QClfW0Q4QkU-371" value="" style="rounded=1;whiteSpace=wrap;html=1;fontSize=5;align=left;" parent="1" vertex="1">
                    <mxGeometry x="180" y="1751" width="20" height="17" as="geometry"/>
                </mxCell>
                <mxCell id="8YzBrKUA3QClfW0Q4QkU-372" value="Register" style="rounded=1;whiteSpace=wrap;html=1;align=center;fontSize=9;" parent="1" vertex="1">
                    <mxGeometry x="210" y="1776" width="60" height="30" as="geometry"/>
                </mxCell>
                <mxCell id="8YzBrKUA3QClfW0Q4QkU-373" value="Image" style="text;html=1;strokeColor=none;fillColor=none;align=left;verticalAlign=middle;whiteSpace=wrap;rounded=0;" parent="1" vertex="1">
                    <mxGeometry x="95" y="1678" width="105" height="20" as="geometry"/>
                </mxCell>
                <mxCell id="8YzBrKUA3QClfW0Q4QkU-374" value="" style="rounded=1;whiteSpace=wrap;html=1;fontSize=5;align=left;" parent="1" vertex="1">
                    <mxGeometry x="180" y="1681" width="60" height="17" as="geometry"/>
                </mxCell>
                <mxCell id="8YzBrKUA3QClfW0Q4QkU-375" value="Upload" style="text;html=1;strokeColor=none;fillColor=none;align=center;verticalAlign=middle;whiteSpace=wrap;rounded=0;fontSize=7;" parent="1" vertex="1">
                    <mxGeometry x="240" y="1683" width="30" height="10" as="geometry"/>
                </mxCell>
                <mxCell id="8YzBrKUA3QClfW0Q4QkU-376" value="" style="rounded=1;whiteSpace=wrap;html=1;fontSize=5;align=left;" parent="1" vertex="1">
                    <mxGeometry x="230" y="1751" width="20" height="17" as="geometry"/>
                </mxCell>
                <mxCell id="8YzBrKUA3QClfW0Q4QkU-377" value="Yes" style="text;html=1;strokeColor=none;fillColor=none;align=left;verticalAlign=middle;whiteSpace=wrap;rounded=0;" parent="1" vertex="1">
                    <mxGeometry x="200" y="1748" width="25" height="20" as="geometry"/>
                </mxCell>
                <mxCell id="8YzBrKUA3QClfW0Q4QkU-378" value="No" style="text;html=1;strokeColor=none;fillColor=none;align=left;verticalAlign=middle;whiteSpace=wrap;rounded=0;" parent="1" vertex="1">
                    <mxGeometry x="250" y="1748" width="29" height="20" as="geometry"/>
                </mxCell>
                <mxCell id="8YzBrKUA3QClfW0Q4QkU-379" value="" style="rounded=0;whiteSpace=wrap;html=1;" parent="1" vertex="1">
                    <mxGeometry x="320" y="1540" width="200" height="310" as="geometry"/>
                </mxCell>
                <mxCell id="8YzBrKUA3QClfW0Q4QkU-380" value="&lt;span style=&quot;font-size: 10px&quot;&gt;&amp;nbsp;Navbar: Categories Register Login Cart&lt;/span&gt;" style="rounded=0;whiteSpace=wrap;html=1;align=center;" parent="1" vertex="1">
                    <mxGeometry x="320" y="1540" width="200" height="30" as="geometry"/>
                </mxCell>
                <mxCell id="8YzBrKUA3QClfW0Q4QkU-381" value="Footer" style="rounded=0;whiteSpace=wrap;html=1;" parent="1" vertex="1">
                    <mxGeometry x="320" y="1820" width="200" height="60" as="geometry"/>
                </mxCell>
                <mxCell id="8YzBrKUA3QClfW0Q4QkU-382" value="Edit Existing Product" style="text;html=1;strokeColor=none;fillColor=none;align=left;verticalAlign=middle;whiteSpace=wrap;rounded=0;" parent="1" vertex="1">
                    <mxGeometry x="320" y="1520" width="200" height="20" as="geometry"/>
                </mxCell>
                <mxCell id="8YzBrKUA3QClfW0Q4QkU-383" value="Edit Product" style="text;html=1;strokeColor=none;fillColor=none;align=center;verticalAlign=middle;whiteSpace=wrap;rounded=0;" parent="1" vertex="1">
                    <mxGeometry x="335" y="1580" width="170" height="20" as="geometry"/>
                </mxCell>
                <mxCell id="8YzBrKUA3QClfW0Q4QkU-384" value="Name" style="text;html=1;strokeColor=none;fillColor=none;align=left;verticalAlign=middle;whiteSpace=wrap;rounded=0;" parent="1" vertex="1">
                    <mxGeometry x="335" y="1607" width="65" height="20" as="geometry"/>
                </mxCell>
                <mxCell id="8YzBrKUA3QClfW0Q4QkU-385" value="Category" style="text;html=1;strokeColor=none;fillColor=none;align=left;verticalAlign=middle;whiteSpace=wrap;rounded=0;" parent="1" vertex="1">
                    <mxGeometry x="335" y="1702" width="105" height="20" as="geometry"/>
                </mxCell>
                <mxCell id="8YzBrKUA3QClfW0Q4QkU-386" value="Description" style="text;html=1;strokeColor=none;fillColor=none;align=left;verticalAlign=middle;whiteSpace=wrap;rounded=0;" parent="1" vertex="1">
                    <mxGeometry x="335" y="1630" width="85" height="20" as="geometry"/>
                </mxCell>
                <mxCell id="8YzBrKUA3QClfW0Q4QkU-387" value="Price" style="text;html=1;strokeColor=none;fillColor=none;align=left;verticalAlign=middle;whiteSpace=wrap;rounded=0;" parent="1" vertex="1">
                    <mxGeometry x="335" y="1653" width="65" height="20" as="geometry"/>
                </mxCell>
                <mxCell id="8YzBrKUA3QClfW0Q4QkU-388" value="Quantity" style="text;html=1;strokeColor=none;fillColor=none;align=left;verticalAlign=middle;whiteSpace=wrap;rounded=0;" parent="1" vertex="1">
                    <mxGeometry x="335" y="1725" width="55" height="20" as="geometry"/>
                </mxCell>
                <mxCell id="8YzBrKUA3QClfW0Q4QkU-389" value="Enabled" style="text;html=1;strokeColor=none;fillColor=none;align=left;verticalAlign=middle;whiteSpace=wrap;rounded=0;" parent="1" vertex="1">
                    <mxGeometry x="335" y="1748" width="105" height="20" as="geometry"/>
                </mxCell>
                <mxCell id="8YzBrKUA3QClfW0Q4QkU-390" value="&lt;font style=&quot;font-size: 8px&quot;&gt;Lorem Ipsum&lt;/font&gt;" style="rounded=1;whiteSpace=wrap;html=1;fontSize=5;align=left;" parent="1" vertex="1">
                    <mxGeometry x="420" y="1610" width="90" height="17" as="geometry"/>
                </mxCell>
                <mxCell id="8YzBrKUA3QClfW0Q4QkU-391" value="&lt;span style=&quot;font-size: 8px;&quot;&gt;Lorem Ipsum&lt;/span&gt;" style="rounded=1;whiteSpace=wrap;html=1;fontSize=8;align=left;" parent="1" vertex="1">
                    <mxGeometry x="420" y="1633" width="90" height="17" as="geometry"/>
                </mxCell>
                <mxCell id="8YzBrKUA3QClfW0Q4QkU-392" value="&lt;span style=&quot;font-size: 8px;&quot;&gt;Lorem Ipsum&lt;/span&gt;" style="rounded=1;whiteSpace=wrap;html=1;fontSize=8;align=left;" parent="1" vertex="1">
                    <mxGeometry x="420" y="1656" width="90" height="17" as="geometry"/>
                </mxCell>
                <mxCell id="8YzBrKUA3QClfW0Q4QkU-393" value="&lt;span style=&quot;font-size: 8px;&quot;&gt;Lorem Ipsum&lt;/span&gt;" style="rounded=1;whiteSpace=wrap;html=1;fontSize=8;align=left;" parent="1" vertex="1">
                    <mxGeometry x="420" y="1705" width="90" height="17" as="geometry"/>
                </mxCell>
                <mxCell id="8YzBrKUA3QClfW0Q4QkU-394" value="123" style="rounded=1;whiteSpace=wrap;html=1;fontSize=8;align=left;" parent="1" vertex="1">
                    <mxGeometry x="420" y="1728" width="90" height="17" as="geometry"/>
                </mxCell>
                <mxCell id="8YzBrKUA3QClfW0Q4QkU-395" value="X" style="rounded=1;whiteSpace=wrap;html=1;fontSize=8;align=center;" parent="1" vertex="1">
                    <mxGeometry x="420" y="1751" width="20" height="17" as="geometry"/>
                </mxCell>
                <mxCell id="8YzBrKUA3QClfW0Q4QkU-396" value="Register" style="rounded=1;whiteSpace=wrap;html=1;align=center;fontSize=9;" parent="1" vertex="1">
                    <mxGeometry x="450" y="1776" width="60" height="30" as="geometry"/>
                </mxCell>
                <mxCell id="8YzBrKUA3QClfW0Q4QkU-397" value="Image" style="text;html=1;strokeColor=none;fillColor=none;align=left;verticalAlign=middle;whiteSpace=wrap;rounded=0;" parent="1" vertex="1">
                    <mxGeometry x="335" y="1678" width="105" height="20" as="geometry"/>
                </mxCell>
                <mxCell id="8YzBrKUA3QClfW0Q4QkU-398" value="&lt;span style=&quot;font-size: 8px;&quot;&gt;Lorem Ipsum&lt;/span&gt;" style="rounded=1;whiteSpace=wrap;html=1;fontSize=8;align=left;" parent="1" vertex="1">
                    <mxGeometry x="420" y="1681" width="60" height="17" as="geometry"/>
                </mxCell>
                <mxCell id="8YzBrKUA3QClfW0Q4QkU-399" value="Upload" style="text;html=1;strokeColor=none;fillColor=none;align=center;verticalAlign=middle;whiteSpace=wrap;rounded=0;fontSize=7;" parent="1" vertex="1">
                    <mxGeometry x="480" y="1683" width="30" height="10" as="geometry"/>
                </mxCell>
                <mxCell id="8YzBrKUA3QClfW0Q4QkU-400" value="" style="rounded=1;whiteSpace=wrap;html=1;fontSize=5;align=left;" parent="1" vertex="1">
                    <mxGeometry x="470" y="1751" width="20" height="17" as="geometry"/>
                </mxCell>
                <mxCell id="8YzBrKUA3QClfW0Q4QkU-401" value="Yes" style="text;html=1;strokeColor=none;fillColor=none;align=left;verticalAlign=middle;whiteSpace=wrap;rounded=0;" parent="1" vertex="1">
                    <mxGeometry x="440" y="1748" width="25" height="20" as="geometry"/>
                </mxCell>
                <mxCell id="8YzBrKUA3QClfW0Q4QkU-402" value="No" style="text;html=1;strokeColor=none;fillColor=none;align=left;verticalAlign=middle;whiteSpace=wrap;rounded=0;" parent="1" vertex="1">
                    <mxGeometry x="490" y="1748" width="29" height="20" as="geometry"/>
                </mxCell>
                <mxCell id="8YzBrKUA3QClfW0Q4QkU-403" value="Edit" style="rounded=1;whiteSpace=wrap;html=1;fontSize=6;align=center;" parent="1" vertex="1">
                    <mxGeometry x="509" y="1115" width="13" height="10" as="geometry"/>
                </mxCell>
                <mxCell id="8YzBrKUA3QClfW0Q4QkU-404" value="Diable" style="rounded=1;whiteSpace=wrap;html=1;fontSize=6;align=center;" parent="1" vertex="1">
                    <mxGeometry x="525" y="1115" width="23" height="10" as="geometry"/>
                </mxCell>
                <mxCell id="8YzBrKUA3QClfW0Q4QkU-405" value="Edit" style="rounded=1;whiteSpace=wrap;html=1;fontSize=6;align=center;" parent="1" vertex="1">
                    <mxGeometry x="509" y="1135" width="13" height="10" as="geometry"/>
                </mxCell>
                <mxCell id="8YzBrKUA3QClfW0Q4QkU-406" value="Diable" style="rounded=1;whiteSpace=wrap;html=1;fontSize=6;align=center;" parent="1" vertex="1">
                    <mxGeometry x="525" y="1135" width="23" height="10" as="geometry"/>
                </mxCell>
                <mxCell id="8YzBrKUA3QClfW0Q4QkU-407" value="Edit" style="rounded=1;whiteSpace=wrap;html=1;fontSize=6;align=center;" parent="1" vertex="1">
                    <mxGeometry x="509" y="1155" width="13" height="10" as="geometry"/>
                </mxCell>
                <mxCell id="8YzBrKUA3QClfW0Q4QkU-408" value="Diable" style="rounded=1;whiteSpace=wrap;html=1;fontSize=6;align=center;" parent="1" vertex="1">
                    <mxGeometry x="525" y="1155" width="23" height="10" as="geometry"/>
                </mxCell>
                <mxCell id="8YzBrKUA3QClfW0Q4QkU-409" value="Edit" style="rounded=1;whiteSpace=wrap;html=1;fontSize=6;align=center;" parent="1" vertex="1">
                    <mxGeometry x="509" y="1175" width="13" height="10" as="geometry"/>
                </mxCell>
                <mxCell id="8YzBrKUA3QClfW0Q4QkU-410" value="Diable" style="rounded=1;whiteSpace=wrap;html=1;fontSize=6;align=center;" parent="1" vertex="1">
                    <mxGeometry x="525" y="1175" width="23" height="10" as="geometry"/>
                </mxCell>
                <mxCell id="8YzBrKUA3QClfW0Q4QkU-411" value="Edit" style="rounded=1;whiteSpace=wrap;html=1;fontSize=6;align=center;" parent="1" vertex="1">
                    <mxGeometry x="509" y="1195" width="13" height="10" as="geometry"/>
                </mxCell>
                <mxCell id="8YzBrKUA3QClfW0Q4QkU-412" value="Diable" style="rounded=1;whiteSpace=wrap;html=1;fontSize=6;align=center;" parent="1" vertex="1">
                    <mxGeometry x="525" y="1195" width="23" height="10" as="geometry"/>
                </mxCell>
                <mxCell id="8YzBrKUA3QClfW0Q4QkU-413" value="Edit" style="rounded=1;whiteSpace=wrap;html=1;fontSize=6;align=center;" parent="1" vertex="1">
                    <mxGeometry x="509" y="1215" width="13" height="10" as="geometry"/>
                </mxCell>
                <mxCell id="8YzBrKUA3QClfW0Q4QkU-414" value="Diable" style="rounded=1;whiteSpace=wrap;html=1;fontSize=6;align=center;" parent="1" vertex="1">
                    <mxGeometry x="525" y="1215" width="23" height="10" as="geometry"/>
                </mxCell>
                <mxCell id="8YzBrKUA3QClfW0Q4QkU-415" value="Edit" style="rounded=1;whiteSpace=wrap;html=1;fontSize=6;align=center;" parent="1" vertex="1">
                    <mxGeometry x="509" y="1235" width="13" height="10" as="geometry"/>
                </mxCell>
                <mxCell id="8YzBrKUA3QClfW0Q4QkU-416" value="Diable" style="rounded=1;whiteSpace=wrap;html=1;fontSize=6;align=center;" parent="1" vertex="1">
                    <mxGeometry x="525" y="1235" width="23" height="10" as="geometry"/>
                </mxCell>
                <mxCell id="8YzBrKUA3QClfW0Q4QkU-417" value="Edit" style="rounded=1;whiteSpace=wrap;html=1;fontSize=6;align=center;" parent="1" vertex="1">
                    <mxGeometry x="747" y="1115" width="13" height="10" as="geometry"/>
                </mxCell>
                <mxCell id="8YzBrKUA3QClfW0Q4QkU-418" value="Diable" style="rounded=1;whiteSpace=wrap;html=1;fontSize=6;align=center;" parent="1" vertex="1">
                    <mxGeometry x="763" y="1115" width="23" height="10" as="geometry"/>
                </mxCell>
                <mxCell id="8YzBrKUA3QClfW0Q4QkU-419" value="Edit" style="rounded=1;whiteSpace=wrap;html=1;fontSize=6;align=center;" parent="1" vertex="1">
                    <mxGeometry x="747" y="1135" width="13" height="10" as="geometry"/>
                </mxCell>
                <mxCell id="8YzBrKUA3QClfW0Q4QkU-420" value="Diable" style="rounded=1;whiteSpace=wrap;html=1;fontSize=6;align=center;" parent="1" vertex="1">
                    <mxGeometry x="763" y="1135" width="23" height="10" as="geometry"/>
                </mxCell>
                <mxCell id="8YzBrKUA3QClfW0Q4QkU-421" value="Edit" style="rounded=1;whiteSpace=wrap;html=1;fontSize=6;align=center;" parent="1" vertex="1">
                    <mxGeometry x="747" y="1155" width="13" height="10" as="geometry"/>
                </mxCell>
                <mxCell id="8YzBrKUA3QClfW0Q4QkU-422" value="Diable" style="rounded=1;whiteSpace=wrap;html=1;fontSize=6;align=center;" parent="1" vertex="1">
                    <mxGeometry x="763" y="1155" width="23" height="10" as="geometry"/>
                </mxCell>
                <mxCell id="8YzBrKUA3QClfW0Q4QkU-423" value="Edit" style="rounded=1;whiteSpace=wrap;html=1;fontSize=6;align=center;" parent="1" vertex="1">
                    <mxGeometry x="747" y="1175" width="13" height="10" as="geometry"/>
                </mxCell>
                <mxCell id="8YzBrKUA3QClfW0Q4QkU-424" value="Diable" style="rounded=1;whiteSpace=wrap;html=1;fontSize=6;align=center;" parent="1" vertex="1">
                    <mxGeometry x="763" y="1175" width="23" height="10" as="geometry"/>
                </mxCell>
                <mxCell id="8YzBrKUA3QClfW0Q4QkU-425" value="Edit" style="rounded=1;whiteSpace=wrap;html=1;fontSize=6;align=center;" parent="1" vertex="1">
                    <mxGeometry x="747" y="1195" width="13" height="10" as="geometry"/>
                </mxCell>
                <mxCell id="8YzBrKUA3QClfW0Q4QkU-426" value="Diable" style="rounded=1;whiteSpace=wrap;html=1;fontSize=6;align=center;" parent="1" vertex="1">
                    <mxGeometry x="763" y="1195" width="23" height="10" as="geometry"/>
                </mxCell>
                <mxCell id="8YzBrKUA3QClfW0Q4QkU-427" value="Edit" style="rounded=1;whiteSpace=wrap;html=1;fontSize=6;align=center;" parent="1" vertex="1">
                    <mxGeometry x="747" y="1215" width="13" height="10" as="geometry"/>
                </mxCell>
                <mxCell id="8YzBrKUA3QClfW0Q4QkU-428" value="Diable" style="rounded=1;whiteSpace=wrap;html=1;fontSize=6;align=center;" parent="1" vertex="1">
                    <mxGeometry x="763" y="1215" width="23" height="10" as="geometry"/>
                </mxCell>
                <mxCell id="8YzBrKUA3QClfW0Q4QkU-429" value="Edit" style="rounded=1;whiteSpace=wrap;html=1;fontSize=6;align=center;" parent="1" vertex="1">
                    <mxGeometry x="747" y="1235" width="13" height="10" as="geometry"/>
                </mxCell>
                <mxCell id="8YzBrKUA3QClfW0Q4QkU-430" value="Diable" style="rounded=1;whiteSpace=wrap;html=1;fontSize=6;align=center;" parent="1" vertex="1">
                    <mxGeometry x="763" y="1235" width="23" height="10" as="geometry"/>
                </mxCell>
                <mxCell id="8YzBrKUA3QClfW0Q4QkU-431" value="Edit" style="rounded=1;whiteSpace=wrap;html=1;fontSize=6;align=center;" parent="1" vertex="1">
                    <mxGeometry x="268" y="1125" width="13" height="10" as="geometry"/>
                </mxCell>
                <mxCell id="8YzBrKUA3QClfW0Q4QkU-432" value="Diable" style="rounded=1;whiteSpace=wrap;html=1;fontSize=6;align=center;" parent="1" vertex="1">
                    <mxGeometry x="284" y="1125" width="23" height="10" as="geometry"/>
                </mxCell>
                <mxCell id="8YzBrKUA3QClfW0Q4QkU-433" value="Edit" style="rounded=1;whiteSpace=wrap;html=1;fontSize=6;align=center;" parent="1" vertex="1">
                    <mxGeometry x="268" y="1145" width="13" height="10" as="geometry"/>
                </mxCell>
                <mxCell id="8YzBrKUA3QClfW0Q4QkU-434" value="Diable" style="rounded=1;whiteSpace=wrap;html=1;fontSize=6;align=center;" parent="1" vertex="1">
                    <mxGeometry x="284" y="1145" width="23" height="10" as="geometry"/>
                </mxCell>
                <mxCell id="8YzBrKUA3QClfW0Q4QkU-435" value="Edit" style="rounded=1;whiteSpace=wrap;html=1;fontSize=6;align=center;" parent="1" vertex="1">
                    <mxGeometry x="268" y="1165" width="13" height="10" as="geometry"/>
                </mxCell>
                <mxCell id="8YzBrKUA3QClfW0Q4QkU-436" value="Diable" style="rounded=1;whiteSpace=wrap;html=1;fontSize=6;align=center;" parent="1" vertex="1">
                    <mxGeometry x="284" y="1165" width="23" height="10" as="geometry"/>
                </mxCell>
                <mxCell id="8YzBrKUA3QClfW0Q4QkU-437" value="Edit" style="rounded=1;whiteSpace=wrap;html=1;fontSize=6;align=center;" parent="1" vertex="1">
                    <mxGeometry x="268" y="1185" width="13" height="10" as="geometry"/>
                </mxCell>
                <mxCell id="8YzBrKUA3QClfW0Q4QkU-438" value="Diable" style="rounded=1;whiteSpace=wrap;html=1;fontSize=6;align=center;" parent="1" vertex="1">
                    <mxGeometry x="284" y="1185" width="23" height="10" as="geometry"/>
                </mxCell>
                <mxCell id="8YzBrKUA3QClfW0Q4QkU-439" value="Edit" style="rounded=1;whiteSpace=wrap;html=1;fontSize=6;align=center;" parent="1" vertex="1">
                    <mxGeometry x="268" y="1296" width="13" height="10" as="geometry"/>
                </mxCell>
                <mxCell id="8YzBrKUA3QClfW0Q4QkU-440" value="Diable" style="rounded=1;whiteSpace=wrap;html=1;fontSize=6;align=center;" parent="1" vertex="1">
                    <mxGeometry x="284" y="1296" width="23" height="10" as="geometry"/>
                </mxCell>
                <mxCell id="8YzBrKUA3QClfW0Q4QkU-441" value="Edit" style="rounded=1;whiteSpace=wrap;html=1;fontSize=6;align=center;" parent="1" vertex="1">
                    <mxGeometry x="268" y="1316" width="13" height="10" as="geometry"/>
                </mxCell>
                <mxCell id="8YzBrKUA3QClfW0Q4QkU-442" value="Diable" style="rounded=1;whiteSpace=wrap;html=1;fontSize=6;align=center;" parent="1" vertex="1">
                    <mxGeometry x="284" y="1316" width="23" height="10" as="geometry"/>
                </mxCell>
                <mxCell id="8YzBrKUA3QClfW0Q4QkU-443" value="Edit" style="rounded=1;whiteSpace=wrap;html=1;fontSize=6;align=center;" parent="1" vertex="1">
                    <mxGeometry x="268" y="1336" width="13" height="10" as="geometry"/>
                </mxCell>
                <mxCell id="8YzBrKUA3QClfW0Q4QkU-444" value="Diable" style="rounded=1;whiteSpace=wrap;html=1;fontSize=6;align=center;" parent="1" vertex="1">
                    <mxGeometry x="284" y="1336" width="23" height="10" as="geometry"/>
                </mxCell>
                <mxCell id="8YzBrKUA3QClfW0Q4QkU-445" value="Edit" style="rounded=1;whiteSpace=wrap;html=1;fontSize=6;align=center;" parent="1" vertex="1">
                    <mxGeometry x="268" y="1356" width="13" height="10" as="geometry"/>
                </mxCell>
                <mxCell id="8YzBrKUA3QClfW0Q4QkU-446" value="Diable" style="rounded=1;whiteSpace=wrap;html=1;fontSize=6;align=center;" parent="1" vertex="1">
                    <mxGeometry x="284" y="1356" width="23" height="10" as="geometry"/>
                </mxCell>
                <mxCell id="8YzBrKUA3QClfW0Q4QkU-447" value="" style="rounded=0;whiteSpace=wrap;html=1;fontSize=6;align=center;" parent="1" vertex="1">
                    <mxGeometry x="120" y="400" width="120" height="180" as="geometry"/>
                </mxCell>
                <mxCell id="8YzBrKUA3QClfW0Q4QkU-448" value="Product &lt;br style=&quot;font-size: 7px;&quot;&gt;Image" style="rounded=0;whiteSpace=wrap;html=1;fontSize=7;align=center;" parent="1" vertex="1">
                    <mxGeometry x="128" y="410" width="42" height="30" as="geometry"/>
                </mxCell>
                <mxCell id="8YzBrKUA3QClfW0Q4QkU-451" value="Total: 123123" style="text;html=1;strokeColor=none;fillColor=none;align=center;verticalAlign=middle;whiteSpace=wrap;rounded=0;fontSize=7;" parent="1" vertex="1">
                    <mxGeometry x="182" y="520" width="40" height="20" as="geometry"/>
                </mxCell>
                <mxCell id="8YzBrKUA3QClfW0Q4QkU-452" value="Shopping Cart" style="rounded=1;whiteSpace=wrap;html=1;fontSize=6;align=center;" parent="1" vertex="1">
                    <mxGeometry x="179" y="541" width="50" height="29" as="geometry"/>
                </mxCell>
                <mxCell id="8YzBrKUA3QClfW0Q4QkU-453" value="Product Name" style="text;html=1;strokeColor=none;fillColor=none;align=left;verticalAlign=middle;whiteSpace=wrap;rounded=0;fontSize=7;" parent="1" vertex="1">
                    <mxGeometry x="180" y="415" width="47" height="20" as="geometry"/>
                </mxCell>
                <mxCell id="8YzBrKUA3QClfW0Q4QkU-456" value="Product &lt;br style=&quot;font-size: 7px;&quot;&gt;Image" style="rounded=0;whiteSpace=wrap;html=1;fontSize=7;align=center;" parent="1" vertex="1">
                    <mxGeometry x="128" y="450" width="42" height="30" as="geometry"/>
                </mxCell>
                <mxCell id="8YzBrKUA3QClfW0Q4QkU-457" value="Product Name" style="text;html=1;strokeColor=none;fillColor=none;align=left;verticalAlign=middle;whiteSpace=wrap;rounded=0;fontSize=7;" parent="1" vertex="1">
                    <mxGeometry x="180" y="455" width="47" height="20" as="geometry"/>
                </mxCell>
                <mxCell id="8YzBrKUA3QClfW0Q4QkU-458" value="Product &lt;br style=&quot;font-size: 7px;&quot;&gt;Image" style="rounded=0;whiteSpace=wrap;html=1;fontSize=7;align=center;" parent="1" vertex="1">
                    <mxGeometry x="128" y="490" width="42" height="30" as="geometry"/>
                </mxCell>
                <mxCell id="8YzBrKUA3QClfW0Q4QkU-459" value="Product Name" style="text;html=1;strokeColor=none;fillColor=none;align=left;verticalAlign=middle;whiteSpace=wrap;rounded=0;fontSize=7;" parent="1" vertex="1">
                    <mxGeometry x="180" y="495" width="47" height="20" as="geometry"/>
                </mxCell>
                <mxCell id="8YzBrKUA3QClfW0Q4QkU-460" value="" style="endArrow=none;html=1;fontSize=9;" parent="1" edge="1">
                    <mxGeometry width="50" height="50" relative="1" as="geometry">
                        <mxPoint x="182" y="522.3299999999999" as="sourcePoint"/>
                        <mxPoint x="222" y="522" as="targetPoint"/>
                    </mxGeometry>
                </mxCell>
                <mxCell id="8YzBrKUA3QClfW0Q4QkU-461" value="Shopping Cart Widget" style="text;html=1;strokeColor=none;fillColor=none;align=center;verticalAlign=middle;whiteSpace=wrap;rounded=0;fontSize=12;" parent="1" vertex="1">
                    <mxGeometry x="109" y="375" width="140" height="20" as="geometry"/>
                </mxCell>
                <mxCell id="2" value="" style="rounded=0;whiteSpace=wrap;html=1;" vertex="1" parent="1">
                    <mxGeometry x="560" y="1540" width="200" height="340" as="geometry"/>
                </mxCell>
                <mxCell id="3" value="&lt;span style=&quot;font-size: 10px&quot;&gt;&amp;nbsp;Navbar: Categories Register Login Cart&lt;/span&gt;" style="rounded=0;whiteSpace=wrap;html=1;align=center;" vertex="1" parent="1">
                    <mxGeometry x="560" y="1540" width="200" height="30" as="geometry"/>
                </mxCell>
                <mxCell id="4" value="Footer" style="rounded=0;whiteSpace=wrap;html=1;" vertex="1" parent="1">
                    <mxGeometry x="560" y="1880" width="200" height="60" as="geometry"/>
                </mxCell>
                <mxCell id="5" value="Contact Us" style="text;html=1;strokeColor=none;fillColor=none;align=left;verticalAlign=middle;whiteSpace=wrap;rounded=0;" vertex="1" parent="1">
                    <mxGeometry x="560" y="1520" width="200" height="20" as="geometry"/>
                </mxCell>
                <mxCell id="6" value="Contact Us" style="text;html=1;strokeColor=none;fillColor=none;align=center;verticalAlign=middle;whiteSpace=wrap;rounded=0;" vertex="1" parent="1">
                    <mxGeometry x="575" y="1580" width="170" height="20" as="geometry"/>
                </mxCell>
                <mxCell id="7" value="Contact Information" style="text;html=1;strokeColor=none;fillColor=none;align=left;verticalAlign=middle;whiteSpace=wrap;rounded=0;" vertex="1" parent="1">
                    <mxGeometry x="575" y="1607" width="75" height="33" as="geometry"/>
                </mxCell>
                <mxCell id="8" value="&lt;font style=&quot;font-size: 10px&quot;&gt;Your Email Address&lt;/font&gt;" style="text;html=1;strokeColor=none;fillColor=none;align=left;verticalAlign=middle;whiteSpace=wrap;rounded=0;" vertex="1" parent="1">
                    <mxGeometry x="575" y="1744" width="95" height="20" as="geometry"/>
                </mxCell>
                <mxCell id="11" value="&lt;font style=&quot;font-size: 10px&quot;&gt;Your Message&lt;/font&gt;" style="text;html=1;strokeColor=none;fillColor=none;align=left;verticalAlign=middle;whiteSpace=wrap;rounded=0;" vertex="1" parent="1">
                    <mxGeometry x="575" y="1767" width="75" height="20" as="geometry"/>
                </mxCell>
                <mxCell id="16" value="" style="rounded=1;whiteSpace=wrap;html=1;fontSize=8;align=left;" vertex="1" parent="1">
                    <mxGeometry x="660" y="1747" width="90" height="17" as="geometry"/>
                </mxCell>
                <mxCell id="17" value="" style="rounded=1;whiteSpace=wrap;html=1;fontSize=8;align=left;" vertex="1" parent="1">
                    <mxGeometry x="660" y="1770" width="90" height="52" as="geometry"/>
                </mxCell>
                <mxCell id="19" value="Send" style="rounded=1;whiteSpace=wrap;html=1;align=center;fontSize=9;" vertex="1" parent="1">
                    <mxGeometry x="690" y="1832" width="60" height="30" as="geometry"/>
                </mxCell>
                <mxCell id="26" value="Location on&lt;br&gt;Google Maps" style="rounded=0;whiteSpace=wrap;html=1;" vertex="1" parent="1">
                    <mxGeometry x="660" y="1607" width="90" height="73" as="geometry"/>
                </mxCell>
                <mxCell id="27" value="&lt;font style=&quot;font-size: 10px&quot;&gt;Your Name&lt;/font&gt;" style="text;html=1;strokeColor=none;fillColor=none;align=left;verticalAlign=middle;whiteSpace=wrap;rounded=0;" vertex="1" parent="1">
                    <mxGeometry x="575" y="1722" width="65" height="20" as="geometry"/>
                </mxCell>
                <mxCell id="28" value="" style="rounded=1;whiteSpace=wrap;html=1;fontSize=8;align=left;" vertex="1" parent="1">
                    <mxGeometry x="660" y="1725" width="90" height="17" as="geometry"/>
                </mxCell>
                <mxCell id="29" value="Send us a message" style="text;html=1;strokeColor=none;fillColor=none;align=center;verticalAlign=middle;whiteSpace=wrap;rounded=0;" vertex="1" parent="1">
                    <mxGeometry x="575" y="1700" width="170" height="20" as="geometry"/>
                </mxCell>
                <mxCell id="30" value="" style="rounded=0;whiteSpace=wrap;html=1;" vertex="1" parent="1">
                    <mxGeometry x="80" y="1970" width="200" height="310" as="geometry"/>
                </mxCell>
                <mxCell id="31" value="&lt;span style=&quot;font-size: 10px&quot;&gt;&amp;nbsp;Navbar: Categories Register Login Cart&lt;/span&gt;" style="rounded=0;whiteSpace=wrap;html=1;align=center;" vertex="1" parent="1">
                    <mxGeometry x="80" y="1970" width="200" height="30" as="geometry"/>
                </mxCell>
                <mxCell id="32" value="Footer" style="rounded=0;whiteSpace=wrap;html=1;" vertex="1" parent="1">
                    <mxGeometry x="80" y="2270" width="200" height="60" as="geometry"/>
                </mxCell>
                <mxCell id="33" value="Sales Statistics" style="text;html=1;strokeColor=none;fillColor=none;align=left;verticalAlign=middle;whiteSpace=wrap;rounded=0;" vertex="1" parent="1">
                    <mxGeometry x="80" y="1950" width="200" height="20" as="geometry"/>
                </mxCell>
                <mxCell id="34" value="Sales Statistics" style="text;html=1;strokeColor=none;fillColor=none;align=center;verticalAlign=middle;whiteSpace=wrap;rounded=0;" vertex="1" parent="1">
                    <mxGeometry x="95" y="2010" width="170" height="20" as="geometry"/>
                </mxCell>
                <mxCell id="35" value="Prd. 1" style="text;html=1;strokeColor=none;fillColor=none;align=center;verticalAlign=middle;whiteSpace=wrap;rounded=0;" vertex="1" parent="1">
                    <mxGeometry x="96.75" y="2138" width="40" height="20" as="geometry"/>
                </mxCell>
                <mxCell id="36" value="Product 5" style="text;html=1;strokeColor=none;fillColor=none;align=left;verticalAlign=middle;whiteSpace=wrap;rounded=0;" vertex="1" parent="1">
                    <mxGeometry x="105" y="2171" width="65" height="20" as="geometry"/>
                </mxCell>
                <mxCell id="37" value="Prd. 2" style="text;html=1;strokeColor=none;fillColor=none;align=center;verticalAlign=middle;whiteSpace=wrap;rounded=0;" vertex="1" parent="1">
                    <mxGeometry x="139.87" y="2138" width="40" height="20" as="geometry"/>
                </mxCell>
                <mxCell id="38" value="Prd. 3" style="text;html=1;strokeColor=none;fillColor=none;align=center;verticalAlign=middle;whiteSpace=wrap;rounded=0;" vertex="1" parent="1">
                    <mxGeometry x="179.87" y="2138" width="43.5" height="20" as="geometry"/>
                </mxCell>
                <mxCell id="39" value="Product 6" style="text;html=1;strokeColor=none;fillColor=none;align=left;verticalAlign=middle;whiteSpace=wrap;rounded=0;" vertex="1" parent="1">
                    <mxGeometry x="105" y="2194" width="65" height="20" as="geometry"/>
                </mxCell>
                <mxCell id="40" value="Product 7" style="text;html=1;strokeColor=none;fillColor=none;align=left;verticalAlign=middle;whiteSpace=wrap;rounded=0;" vertex="1" parent="1">
                    <mxGeometry x="105" y="2217" width="65" height="20" as="geometry"/>
                </mxCell>
                <mxCell id="41" value="" style="rounded=1;whiteSpace=wrap;html=1;fontSize=5;align=left;direction=south;" vertex="1" parent="1">
                    <mxGeometry x="108.25" y="2040" width="17" height="90" as="geometry"/>
                </mxCell>
                <mxCell id="42" value="" style="rounded=1;whiteSpace=wrap;html=1;fontSize=5;align=left;direction=south;" vertex="1" parent="1">
                    <mxGeometry x="150" y="2047" width="17" height="83" as="geometry"/>
                </mxCell>
                <mxCell id="43" value="" style="rounded=1;whiteSpace=wrap;html=1;fontSize=5;align=left;direction=south;" vertex="1" parent="1">
                    <mxGeometry x="232.50000000000003" y="2087" width="17" height="43" as="geometry"/>
                </mxCell>
                <mxCell id="44" value="" style="rounded=1;whiteSpace=wrap;html=1;fontSize=5;align=left;direction=south;" vertex="1" parent="1">
                    <mxGeometry x="191" y="2067" width="17" height="63" as="geometry"/>
                </mxCell>
                <mxCell id="48" value="Prd. 4" style="text;html=1;strokeColor=none;fillColor=none;align=center;verticalAlign=middle;whiteSpace=wrap;rounded=0;" vertex="1" parent="1">
                    <mxGeometry x="222.00000000000017" y="2138" width="38" height="20" as="geometry"/>
                </mxCell>
                <mxCell id="54" value="" style="rounded=0;whiteSpace=wrap;html=1;" vertex="1" parent="1">
                    <mxGeometry x="320" y="1970" width="200" height="310" as="geometry"/>
                </mxCell>
                <mxCell id="55" value="&lt;span style=&quot;font-size: 10px&quot;&gt;&amp;nbsp;Navbar: Categories Register Login Cart&lt;/span&gt;" style="rounded=0;whiteSpace=wrap;html=1;align=center;" vertex="1" parent="1">
                    <mxGeometry x="320" y="1970" width="200" height="30" as="geometry"/>
                </mxCell>
                <mxCell id="56" value="Footer" style="rounded=0;whiteSpace=wrap;html=1;" vertex="1" parent="1">
                    <mxGeometry x="320" y="2220" width="200" height="60" as="geometry"/>
                </mxCell>
                <mxCell id="57" value="&lt;span style=&quot;text-align: center&quot;&gt;Stock / Inventory&lt;/span&gt;" style="text;html=1;strokeColor=none;fillColor=none;align=left;verticalAlign=middle;whiteSpace=wrap;rounded=0;" vertex="1" parent="1">
                    <mxGeometry x="320" y="1950" width="200" height="20" as="geometry"/>
                </mxCell>
                <mxCell id="58" value="Stock / Inventory" style="text;html=1;strokeColor=none;fillColor=none;align=center;verticalAlign=middle;whiteSpace=wrap;rounded=0;" vertex="1" parent="1">
                    <mxGeometry x="335" y="2010" width="170" height="20" as="geometry"/>
                </mxCell>
                <mxCell id="78" value="Product 8" style="text;html=1;strokeColor=none;fillColor=none;align=left;verticalAlign=middle;whiteSpace=wrap;rounded=0;" vertex="1" parent="1">
                    <mxGeometry x="105" y="2237" width="65" height="20" as="geometry"/>
                </mxCell>
                <mxCell id="79" value="39" style="text;html=1;strokeColor=none;fillColor=none;align=left;verticalAlign=middle;whiteSpace=wrap;rounded=0;" vertex="1" parent="1">
                    <mxGeometry x="225" y="2171" width="25" height="20" as="geometry"/>
                </mxCell>
                <mxCell id="80" value="24" style="text;html=1;strokeColor=none;fillColor=none;align=left;verticalAlign=middle;whiteSpace=wrap;rounded=0;" vertex="1" parent="1">
                    <mxGeometry x="225" y="2194" width="25" height="20" as="geometry"/>
                </mxCell>
                <mxCell id="81" value="21" style="text;html=1;strokeColor=none;fillColor=none;align=left;verticalAlign=middle;whiteSpace=wrap;rounded=0;" vertex="1" parent="1">
                    <mxGeometry x="225" y="2217" width="25" height="20" as="geometry"/>
                </mxCell>
                <mxCell id="82" value="17" style="text;html=1;strokeColor=none;fillColor=none;align=left;verticalAlign=middle;whiteSpace=wrap;rounded=0;" vertex="1" parent="1">
                    <mxGeometry x="225" y="2237" width="25" height="20" as="geometry"/>
                </mxCell>
                <mxCell id="84" value="Prd. 1" style="text;html=1;strokeColor=none;fillColor=none;align=center;verticalAlign=middle;whiteSpace=wrap;rounded=0;" vertex="1" parent="1">
                    <mxGeometry x="340" y="2088" width="40" height="20" as="geometry"/>
                </mxCell>
                <mxCell id="85" value="Product 5&amp;nbsp; WARNING" style="text;html=1;strokeColor=none;fillColor=none;align=left;verticalAlign=middle;whiteSpace=wrap;rounded=0;" vertex="1" parent="1">
                    <mxGeometry x="338.25" y="2121" width="121.75" height="20" as="geometry"/>
                </mxCell>
                <mxCell id="86" value="Prd. 2" style="text;html=1;strokeColor=none;fillColor=none;align=center;verticalAlign=middle;whiteSpace=wrap;rounded=0;" vertex="1" parent="1">
                    <mxGeometry x="383.12" y="2088" width="40" height="20" as="geometry"/>
                </mxCell>
                <mxCell id="87" value="Prd. 3" style="text;html=1;strokeColor=none;fillColor=none;align=center;verticalAlign=middle;whiteSpace=wrap;rounded=0;" vertex="1" parent="1">
                    <mxGeometry x="423.12" y="2088" width="43.5" height="20" as="geometry"/>
                </mxCell>
                <mxCell id="88" value="Product 6&amp;nbsp; WARNING" style="text;html=1;strokeColor=none;fillColor=none;align=left;verticalAlign=middle;whiteSpace=wrap;rounded=0;" vertex="1" parent="1">
                    <mxGeometry x="338.25" y="2144" width="131.75" height="20" as="geometry"/>
                </mxCell>
                <mxCell id="89" value="Product 7&amp;nbsp; WARNING" style="text;html=1;strokeColor=none;fillColor=none;align=left;verticalAlign=middle;whiteSpace=wrap;rounded=0;" vertex="1" parent="1">
                    <mxGeometry x="338.25" y="2167" width="131.75" height="20" as="geometry"/>
                </mxCell>
                <mxCell id="90" value="" style="rounded=1;whiteSpace=wrap;html=1;fontSize=5;align=left;direction=south;" vertex="1" parent="1">
                    <mxGeometry x="351.5" y="2060" width="17" height="20" as="geometry"/>
                </mxCell>
                <mxCell id="91" value="" style="rounded=1;whiteSpace=wrap;html=1;fontSize=5;align=left;direction=south;" vertex="1" parent="1">
                    <mxGeometry x="393.25" y="2050" width="17" height="30" as="geometry"/>
                </mxCell>
                <mxCell id="92" value="" style="rounded=1;whiteSpace=wrap;html=1;fontSize=5;align=left;direction=south;" vertex="1" parent="1">
                    <mxGeometry x="475.75" y="2060" width="17" height="20" as="geometry"/>
                </mxCell>
                <mxCell id="93" value="" style="rounded=1;whiteSpace=wrap;html=1;fontSize=5;align=left;direction=south;" vertex="1" parent="1">
                    <mxGeometry x="434.25" y="2040" width="17" height="40" as="geometry"/>
                </mxCell>
                <mxCell id="94" value="Prd. 4" style="text;html=1;strokeColor=none;fillColor=none;align=center;verticalAlign=middle;whiteSpace=wrap;rounded=0;" vertex="1" parent="1">
                    <mxGeometry x="465.25000000000017" y="2088" width="38" height="20" as="geometry"/>
                </mxCell>
                <mxCell id="95" value="Product 8&amp;nbsp; WARNING" style="text;html=1;strokeColor=none;fillColor=none;align=left;verticalAlign=middle;whiteSpace=wrap;rounded=0;" vertex="1" parent="1">
                    <mxGeometry x="338.25" y="2187" width="131.75" height="20" as="geometry"/>
                </mxCell>
                <mxCell id="96" value="0" style="text;html=1;strokeColor=none;fillColor=none;align=left;verticalAlign=middle;whiteSpace=wrap;rounded=0;" vertex="1" parent="1">
                    <mxGeometry x="478.25" y="2121" width="25" height="20" as="geometry"/>
                </mxCell>
                <mxCell id="97" value="1" style="text;html=1;strokeColor=none;fillColor=none;align=left;verticalAlign=middle;whiteSpace=wrap;rounded=0;" vertex="1" parent="1">
                    <mxGeometry x="478.25" y="2144" width="25" height="20" as="geometry"/>
                </mxCell>
                <mxCell id="98" value="0" style="text;html=1;strokeColor=none;fillColor=none;align=left;verticalAlign=middle;whiteSpace=wrap;rounded=0;" vertex="1" parent="1">
                    <mxGeometry x="478.25" y="2167" width="25" height="20" as="geometry"/>
                </mxCell>
                <mxCell id="99" value="2" style="text;html=1;strokeColor=none;fillColor=none;align=left;verticalAlign=middle;whiteSpace=wrap;rounded=0;" vertex="1" parent="1">
                    <mxGeometry x="478.25" y="2187" width="25" height="20" as="geometry"/>
                </mxCell>
            </root>
        </mxGraphModel>
    </diagram>
</mxfile>